<svg xmlns="http://www.w3.org/2000/svg" viewBox="0 0 58.63 54.84"><defs><style>.cls-1{fill:#3e3e3e;}.cls-2{fill:#fff;}</style></defs><title>Asset 3</title><g id="Layer_2" data-name="Layer 2"><g id="Layer_1-2" data-name="Layer 1"><path class="cls-1" d="M20.37,22.8l7.19,6.51a.34.34,0,1,0,.44-.49l-7.18-6.51a.37.37,0,0,0-.52,0A.37.37,0,0,0,20.37,22.8Z"/><path class="cls-1" d="M19.49,23.77l7.19,6.51a.34.34,0,1,0,.44-.49l-7.18-6.51a.37.37,0,0,0-.52,0A.37.37,0,0,0,19.49,23.77Z"/><path class="cls-1" d="M18.61,24.74l7.19,6.51a.34.34,0,1,0,.44-.49l-7.18-6.51a.37.37,0,0,0-.52,0A.37.37,0,0,0,18.61,24.74Z"/><path class="cls-1" d="M17.74,25.71l7.18,6.51a.38.38,0,0,0,.52,0,.38.38,0,0,0-.07-.52l-7.19-6.51a.34.34,0,1,0-.44.49Z"/><path class="cls-1" d="M16.86,26.68,24,33.19a.38.38,0,0,0,.52,0,.38.38,0,0,0-.07-.52L17.3,26.19a.34.34,0,1,0-.44.49Z"/><path class="cls-1" d="M16,27.65l7.19,6.51a.38.38,0,0,0,.52,0,.38.38,0,0,0-.07-.52l-7.19-6.51a.38.38,0,0,0-.52,0A.38.38,0,0,0,16,27.65Z"/><path class="cls-1" d="M15.1,28.62l7.18,6.51a.38.38,0,0,0,.52,0,.38.38,0,0,0-.07-.52l-7.19-6.51a.34.34,0,1,0-.44.49Z"/><path class="cls-1" d="M14.22,29.59,21.4,36.1a.38.38,0,0,0,.52,0,.38.38,0,0,0-.07-.52L14.66,29.1a.34.34,0,1,0-.44.49Z"/><path class="cls-1" d="M13.34,30.56l7.18,6.51a.34.34,0,1,0,.45-.49l-7.19-6.51a.33.33,0,1,0-.44.49Z"/><path class="cls-1" d="M12.46,31.53,19.64,38a.34.34,0,1,0,.45-.49L12.9,31a.35.35,0,0,0-.51,0A.36.36,0,0,0,12.46,31.53Z"/><path class="cls-1" d="M11.58,32.5,18.76,39a.34.34,0,1,0,.45-.49L12,32a.36.36,0,0,0-.51,0A.37.37,0,0,0,11.58,32.5Z"/><path class="cls-1" d="M10.7,33.47,17.88,40a.39.39,0,0,0,.52,0,.37.37,0,0,0-.07-.52L11.14,33a.35.35,0,0,0-.51,0A.36.36,0,0,0,10.7,33.47Z"/><path class="cls-1" d="M9.82,34.44,17,41a.36.36,0,0,0,.51,0,.37.37,0,0,0-.07-.52L10.27,34a.37.37,0,0,0-.52,0A.36.36,0,0,0,9.82,34.44Z"/><path class="cls-1" d="M8.94,35.41l7.19,6.51a.34.34,0,1,0,.44-.49L9.39,34.92a.37.37,0,0,0-.52,0A.36.36,0,0,0,8.94,35.41Z"/><path class="cls-1" d="M8.06,36.38l7.19,6.51a.34.34,0,1,0,.44-.49L8.51,35.89a.37.37,0,0,0-.52,0A.37.37,0,0,0,8.06,36.38Z"/><path class="cls-1" d="M7.18,37.35l7.19,6.52a.39.39,0,0,0,.52,0,.38.38,0,0,0-.08-.52L7.63,36.86a.37.37,0,0,0-.52,0A.37.37,0,0,0,7.18,37.35Z"/><path class="cls-1" d="M6.3,38.32l7.19,6.51a.34.34,0,1,0,.44-.49L6.75,37.83a.37.37,0,0,0-.52,0A.37.37,0,0,0,6.3,38.32Z"/><path class="cls-1" d="M5.42,39.29l7.19,6.51a.34.34,0,1,0,.44-.49L5.87,38.8a.37.37,0,0,0-.52,0A.37.37,0,0,0,5.42,39.29Z"/><path class="cls-1" d="M4.54,40.26l7.19,6.51a.38.38,0,0,0,.52,0,.38.38,0,0,0-.07-.52L5,39.77a.37.37,0,0,0-.52,0A.37.37,0,0,0,4.54,40.26Z"/><path class="cls-1" d="M3.66,41.23l7.19,6.51a.38.38,0,0,0,.52,0,.38.38,0,0,0-.07-.52L4.11,40.74a.38.38,0,0,0-.52,0A.38.38,0,0,0,3.66,41.23Z"/><path class="cls-1" d="M2.79,42.2,10,48.71a.38.38,0,0,0,.52,0,.38.38,0,0,0-.07-.52L3.23,41.71a.37.37,0,0,0-.52,0A.36.36,0,0,0,2.79,42.2Z"/><path class="cls-1" d="M1.91,43.17l7.18,6.51a.38.38,0,0,0,.52,0,.38.38,0,0,0-.07-.52L2.35,42.68a.37.37,0,0,0-.52,0A.36.36,0,0,0,1.91,43.17Z"/><path class="cls-1" d="M1,44.14l7.18,6.51a.38.38,0,0,0,.52,0,.38.38,0,0,0-.07-.52L1.47,43.65a.37.37,0,0,0-.52,0A.36.36,0,0,0,1,44.14Z"/><path class="cls-1" d="M.15,45.11l7.18,6.51a.34.34,0,1,0,.45-.49L.59,44.62a.37.37,0,0,0-.52,0A.36.36,0,0,0,.15,45.11Z"/><path class="cls-1" d="M38.74,2.54l7.19,6.51a.34.34,0,1,0,.44-.49L39.19,2a.39.39,0,0,0-.52,0A.38.38,0,0,0,38.74,2.54Z"/><path class="cls-1" d="M37.86,3.51,45.05,10a.34.34,0,1,0,.44-.49L38.31,3a.39.39,0,0,0-.52,0A.38.38,0,0,0,37.86,3.51Z"/><path class="cls-1" d="M37,4.48,44.17,11a.34.34,0,1,0,.44-.49L37.43,4a.38.38,0,0,0-.52,0A.38.38,0,0,0,37,4.48Z"/><path class="cls-1" d="M36.1,5.45,43.29,12a.34.34,0,1,0,.44-.49L36.55,5a.38.38,0,0,0-.52,0A.38.38,0,0,0,36.1,5.45Z"/><path class="cls-1" d="M35.22,6.42l7.19,6.51a.37.37,0,0,0,.52,0,.37.37,0,0,0-.07-.51L35.67,5.92a.39.39,0,0,0-.52,0A.38.38,0,0,0,35.22,6.42Z"/><path class="cls-1" d="M34.34,7.39l7.19,6.51a.37.37,0,0,0,.52,0,.37.37,0,0,0-.07-.51L34.79,6.89a.39.39,0,0,0-.52,0A.38.38,0,0,0,34.34,7.39Z"/><path class="cls-1" d="M33.47,8.36l7.18,6.51a.37.37,0,0,0,.52,0,.37.37,0,0,0-.07-.51L33.91,7.86a.39.39,0,0,0-.52,0A.38.38,0,0,0,33.47,8.36Z"/><path class="cls-1" d="M32.59,9.33l7.18,6.51a.37.37,0,0,0,.52,0,.37.37,0,0,0-.07-.51L33,8.84a.34.34,0,1,0-.44.49Z"/><path class="cls-1" d="M31.71,10.3l7.18,6.51a.37.37,0,0,0,.52,0,.37.37,0,0,0-.07-.51L32.15,9.81a.34.34,0,1,0-.44.49Z"/><path class="cls-1" d="M30.83,11.27,38,17.78a.37.37,0,0,0,.52,0,.37.37,0,0,0-.07-.51l-7.19-6.51a.34.34,0,1,0-.44.49Z"/><path class="cls-1" d="M30,12.24l7.18,6.51a.37.37,0,0,0,.52,0,.36.36,0,0,0-.07-.51l-7.19-6.51a.34.34,0,1,0-.44.49Z"/><path class="cls-1" d="M29.07,13.21l7.18,6.51a.37.37,0,0,0,.52,0,.36.36,0,0,0-.07-.51l-7.19-6.51a.38.38,0,0,0-.52,0A.39.39,0,0,0,29.07,13.21Z"/><path class="cls-1" d="M28.19,14.18l7.18,6.51a.37.37,0,0,0,.52,0,.36.36,0,0,0-.07-.51l-7.18-6.51a.34.34,0,1,0-.45.49Z"/><path class="cls-1" d="M27.31,15.15l7.19,6.51a.35.35,0,0,0,.51,0,.36.36,0,0,0-.07-.51l-7.19-6.51a.36.36,0,0,0-.51,0A.37.37,0,0,0,27.31,15.15Z"/><path class="cls-1" d="M26.43,16.12l7.19,6.51a.35.35,0,0,0,.51,0,.36.36,0,0,0-.07-.51l-7.18-6.52a.34.34,0,1,0-.45.5Z"/><path class="cls-1" d="M25.55,17.09l7.19,6.51a.33.33,0,1,0,.44-.49L26,16.59a.34.34,0,1,0-.45.5Z"/><path class="cls-1" d="M24.67,18.06l7.19,6.51a.34.34,0,1,0,.44-.49l-7.18-6.52a.34.34,0,1,0-.45.5Z"/><path class="cls-1" d="M23.79,19,31,25.54a.34.34,0,1,0,.44-.49l-7.18-6.51a.38.38,0,0,0-.52,0A.38.38,0,0,0,23.79,19Z"/><path class="cls-1" d="M22.91,20l7.19,6.51a.34.34,0,1,0,.44-.49L23.36,19.5a.34.34,0,1,0-.45.5Z"/><path class="cls-1" d="M22,21l7.19,6.51a.34.34,0,1,0,.44-.49l-7.18-6.52A.34.34,0,1,0,22,21Z"/><path class="cls-1" d="M21.16,21.94l7.18,6.51a.37.37,0,0,0,.52,0,.37.37,0,0,0-.07-.51L21.6,21.44a.34.34,0,1,0-.44.5Z"/><path class="cls-1" d="M8.48,47.65c-1.36,1.51-1.85,3.3-1.08,4h0c.76.69,2.5,0,3.87-1.48l35.81-39.5c1.37-1.51,1.85-3.3,1.09-4h0c-.77-.7-2.5,0-3.87,1.47Z"/><path class="cls-1" d="M39.64,1.54l7.19,6.52c.25.22.74.08,1.09-.32s.46-.9.21-1.12L41,.11c-.25-.23-.74-.09-1.1.31S39.4,1.32,39.64,1.54Z"/><path class="cls-1" d="M.16,45.1l7.18,6.52c.25.22.74.07,1.1-.32s.45-.9.2-1.12L1.46,43.66c-.25-.22-.74-.08-1.09.32S-.09,44.88.16,45.1Z"/><path class="cls-1" d="M43.52,9s2.19-2,1-3.09l.62-.69,2.09,1.9L44.63,10Z"/><path class="cls-1" d="M9.26,46.79s-1.79,2.38-3,1.31l-.62.68,2.1,1.9,2.61-2.88Z"/><path class="cls-1" d="M48.17,6.67h0c.76.7.28,2.49-1.09,4L11.27,50.17C9.9,51.68,8.16,52.34,7.4,51.65h0Z"/><path class="cls-1" d="M3.4,3.19c-.49.25,10.91,10.92,26.68,26.69l-.4-1.25,2.77-2.1S3.8,2.82,3.4,3.19Z"/><path class="cls-1" d="M34.13,39.86h0a5.47,5.47,0,0,1,.72,4.08,5.68,5.68,0,0,0,.78,4.76,5.81,5.81,0,0,0,3.18,2.41,4.53,4.53,0,0,0,2.68,0c.05,0,.07.1.13.14a6.59,6.59,0,0,1,1.11,1.2,6.88,6.88,0,0,1,.44.66,1.38,1.38,0,0,1,.17.82.85.85,0,0,0,1.61.45.84.84,0,0,0-.38-1.13,1.46,1.46,0,0,1-.6-.58,6,6,0,0,1-.33-.73,6.16,6.16,0,0,1-.43-1.57,1,1,0,0,0-.09-.27,5.18,5.18,0,0,0,.28-6.51,5.81,5.81,0,0,0-3.18-2.41,4.64,4.64,0,0,0-1-.18,5.72,5.72,0,0,1-3.58-2.17h0c-2.28-3.17-3.92-6.3-3.66-7a14.75,14.75,0,0,0,.52-5.31l-4.28,3.16Zm8.19,4.42c1.21,1.85,1,4.2-.5,5.24l-.06,0a3.1,3.1,0,0,1-2.61.32A4.59,4.59,0,0,1,36.67,48c-1.21-1.85-1-4.2.5-5.24l.07,0a3.1,3.1,0,0,1,2.61-.32A4.57,4.57,0,0,1,42.32,44.28Z"/><path class="cls-1" d="M57.84,40.06a.68.68,0,0,0-.56.78,1.09,1.09,0,0,1-.06.37,2.3,2.3,0,0,1-.17.39,1.93,1.93,0,0,1-.54.63,2.11,2.11,0,0,1-.78.34,2,2,0,0,1-.42,0,1.91,1.91,0,0,1-.24,0h-.22a5.76,5.76,0,0,1-1.78-.52,6.47,6.47,0,0,1-1.56-1s-.09,0-.12-.08a4.47,4.47,0,0,0-.08-2.4,5.81,5.81,0,0,0-2.41-3.18,5.61,5.61,0,0,0-4.76-.78,5.56,5.56,0,0,1-4.08-.72h0l-9.78-5.7-.77,1.09C18.27,17.3,3.65,2.7,3.4,3.19S26.73,32.25,26.73,32.25a14.8,14.8,0,0,0,5.32-.52c.69-.26,3.81,1.38,7,3.66h0A5.68,5.68,0,0,1,41.19,39a4.83,4.83,0,0,0,.18,1,5.77,5.77,0,0,0,2.42,3.17c2.33,1.54,5.21,1.29,6.75-.53l0,0h0a20.92,20.92,0,0,0,2.1.59,10,10,0,0,0,2.13.26h.28l.26,0a5.21,5.21,0,0,0,.57-.09,3.74,3.74,0,0,0,1-.45,3.54,3.54,0,0,0,.87-.77,3.73,3.73,0,0,0,.35-.46,2.93,2.93,0,0,0,.31-.56l.07-.15a.77.77,0,0,0,0-.37A.68.68,0,0,0,57.84,40.06ZM44.49,42.12a4.5,4.5,0,0,1-1.89-2.48A3.07,3.07,0,0,1,42.92,37L43,37c1-1.49,3.4-1.72,5.24-.5A4.49,4.49,0,0,1,50.1,39a3.08,3.08,0,0,1-.33,2.6l0,.07C48.68,43.11,46.33,43.33,44.49,42.12Z"/><path class="cls-1" d="M31,29a1.23,1.23,0,1,1-1.74,0A1.22,1.22,0,0,1,31,29Z"/><path class="cls-2" d="M30.66,29.31a.81.81,0,0,1,0,1.14.8.8,0,0,1-1.14,0,.81.81,0,0,1,1.15-1.14Z"/></g></g></svg>