<svg xmlns="http://www.w3.org/2000/svg" viewBox="0 0 88.41 44.54"><defs><style>.cls-1{opacity:0.5;}.cls-2{fill:#3e3e3e;}.cls-3{fill:#fff;}.cls-4{fill:#f5f5f5;}</style></defs><title>Asset 4</title><g id="Layer_2" data-name="Layer 2"><g id="Layer_1-2" data-name="Layer 1"><g class="cls-1"><path class="cls-2" d="M31.48,22.9l-3.9-2.76L25.41,23.2l6.39,4.53.33-.45A3.22,3.22,0,0,1,31.48,22.9Z"/><path class="cls-2" d="M31.85,19.54a1.64,1.64,0,0,1,.39,2.28L30,25a1.64,1.64,0,0,1-2.28.39L1.79,7A1.65,1.65,0,0,1,1.4,4.7L3.62,1.56a1.64,1.64,0,0,1,2.29-.39Z"/><path class="cls-2" d="M49.23,44a3.72,3.72,0,0,0-1.13-3.18,20,20,0,0,0-2.81-2.61c-2-1.6-4.23-3.07-6.36-4.6L26,24.55l-12.89-9.1L.29,6.27a.72.72,0,0,1-.16-1,.71.71,0,0,1,1-.17h0c4.33,3,8.63,6,13,9l12.87,9.12,12.78,9.25c2.11,1.58,4.24,3.1,6.3,4.8a20.92,20.92,0,0,1,2.9,2.83A7,7,0,0,1,50,41.94,4,4,0,0,1,50.25,43a3.63,3.63,0,0,1-.1,1.12l0,.05a.47.47,0,0,1-.58.32A.46.46,0,0,1,49.23,44Z"/><path class="cls-3" d="M5.31,2.16C7.52,3.58,9.7,5,11.86,6.52s4.31,3,6.46,4.49,4.27,3,6.38,4.6,4.22,3.12,6.28,4.74c-2.21-1.41-4.38-2.88-6.55-4.35S20.12,13,18,11.51s-4.27-3-6.38-4.61S7.38,3.78,5.31,2.16Z"/><path class="cls-2" d="M39.84,40C50,38,93.34,12.05,88,2.79,83.47-4.91,76.15,5.32,72,9.55,67.46,14.25,59.34,22,50.65,29.3c-2.6,2.2-7.27,6-10.86,7.61C35.63,38.79,37.26,40.53,39.84,40Z"/><path class="cls-3" d="M49.59,32.15l1.62-1.4c1-.89,2.48-2.2,4.22-3.75s3.75-3.39,5.89-5.37,4.42-4.11,6.65-6.27l3.32-3.24c1.11-1.07,2.14-2.16,3.12-3.24a51.45,51.45,0,0,1,5.68-5.62,9.25,9.25,0,0,1,2.79-1.59,2.61,2.61,0,0,1,2.4.24,4.16,4.16,0,0,1,1.07,1.16c.2.31.29.48.29.48s-.1-.17-.31-.46A4,4,0,0,0,85.23,2a2.49,2.49,0,0,0-2.3-.14,9.85,9.85,0,0,0-2.66,1.65,28,28,0,0,0-2.71,2.58c-.92,1-1.83,2-2.83,3.12s-2,2.19-3.1,3.26l-3.31,3.27C66.07,17.87,63.78,20,61.62,22s-4.23,3.74-6,5.26S52.33,30,51.27,30.81Z"/><path class="cls-3" d="M84.69,5.71a1.26,1.26,0,1,1-1.52-2A1.28,1.28,0,0,1,85,4,1.26,1.26,0,0,1,84.69,5.71Z"/><path class="cls-4" d="M45.41,36.35a.73.73,0,1,1-.55-.87A.73.73,0,0,1,45.41,36.35Z"/></g></g></g></svg>