<svg xmlns="http://www.w3.org/2000/svg" viewBox="0 0 24.04 8.56"><defs><style>.cls-1{fill:#3e3e3e;}</style></defs><title>Asset 1</title><g id="Layer_2" data-name="Layer 2"><g id="Layer_1-2" data-name="Layer 1"><path class="cls-1" d="M11.83,3.85c1.65-1.7,3.87-.42,5.09.11,1.53.68,5.12,1.39,5.65-1.52.38-2.09-3.07-1.38-2,.08A1.46,1.46,0,0,1,20.73.33C22-.69,24.08.82,24,2.68s-1.22,5.15-5.71,5.77-6.14-1.37-6.76-2.59A1.72,1.72,0,0,1,11.83,3.85Z"/><path class="cls-1" d="M12.21,3.85c-1.64-1.7-3.86-.42-5.08.11C5.59,4.64,2,5.35,1.47,2.44c-.38-2.09,3.08-1.38,2,.08A1.46,1.46,0,0,0,3.32.33C2.09-.69,0,.82,0,2.68S1.23,7.83,5.71,8.45s6.15-1.37,6.76-2.59A1.71,1.71,0,0,0,12.21,3.85Z"/></g></g></svg>