<svg xmlns="http://www.w3.org/2000/svg" xmlns:xlink="http://www.w3.org/1999/xlink" viewBox="0 0 43.05 113.32"><defs><style>.cls-1{fill:none;}.cls-2{clip-path:url(#clip-path);}.cls-3{fill:#3e3e3e;}</style><clipPath id="clip-path" transform="translate(14.97 4.76)"><rect class="cls-1" x="2.24" y="11.85" width="22" height="55.9"/></clipPath></defs><title>Asset 2</title><g id="Layer_2" data-name="Layer 2"><g id="Layer_1-2" data-name="Layer 1"><g class="cls-2"><polygon class="cls-3" points="2.6 47.71 0 44.83 40.46 0 43.05 2.88 2.6 47.71"/><polygon class="cls-3" points="2.6 58.64 0 55.77 40.46 10.94 43.05 13.81 2.6 58.64"/><polygon class="cls-3" points="2.6 69.58 0 66.7 40.46 21.87 43.05 24.75 2.6 69.58"/><polygon class="cls-3" points="2.6 80.52 0 77.64 40.46 32.81 43.05 35.69 2.6 80.52"/><polygon class="cls-3" points="2.6 91.45 0 88.57 40.46 43.74 43.05 46.62 2.6 91.45"/><polygon class="cls-3" points="2.6 102.38 0 99.5 40.46 54.68 43.05 57.56 2.6 102.38"/><polygon class="cls-3" points="2.6 113.32 0 110.44 40.46 65.61 43.05 68.49 2.6 113.32"/></g><path class="cls-3" d="M25.29,68.92H1.19V10.69h24.1Zm-22-2.33h19.9V13H3.29Z" transform="translate(14.97 4.76)"/><path class="cls-3" d="M24.13,12.85c0-.21,0-.41,0-.62C24.16,5.47,19.22,0,13.12,0s-11,5.47-11,12.23c0,.21,0,.41,0,.62Z" transform="translate(14.97 4.76)"/><path class="cls-3" d="M24.13,66.76c0,.21,0,.41,0,.63,0,6.75-4.94,12.22-11,12.22s-11-5.47-11-12.22c0-.22,0-.42,0-.63Z" transform="translate(14.97 4.76)"/><path class="cls-3" d="M26.24,15.18a1.11,1.11,0,0,1-1,1.16H1.05a1.11,1.11,0,0,1-1-1.16V10.52A1.11,1.11,0,0,1,1.05,9.36H25.19a1.11,1.11,0,0,1,1,1.16Z" transform="translate(14.97 4.76)"/><path class="cls-3" d="M26.24,64.43a1.12,1.12,0,0,0-1-1.17H1.05a1.12,1.12,0,0,0-1,1.17v4.66a1.11,1.11,0,0,0,1.05,1.16H25.19a1.11,1.11,0,0,0,1-1.16Z" transform="translate(14.97 4.76)"/></g></g></svg>