<svg xmlns="http://www.w3.org/2000/svg" viewBox="0 0 161.43 45.95"><defs><style>.cls-1{fill:#262e35;}</style></defs><title>barber</title><g id="Layer_2" data-name="Layer 2"><g id="Objects"><path class="cls-1" d="M0,20a44.24,44.24,0,0,1,7.64-4.35c4.37-2,7.49-2.47,10.14-1.91a5.71,5.71,0,0,1,4.62,3.83c1,2.68-.25,5.76-3.15,8.16l0,.08c3.28-.59,7.61.32,9.06,4.46a7.94,7.94,0,0,1-.51,6.48c-1.38,2.54-4.29,4.59-8.89,6.69-2.51,1.16-4.49,1.95-5.77,2.41ZM9.5,28.8c1.22-.58,2.45-1.15,3.68-1.7,4.28-1.91,6.08-4.84,5.05-7.5-1.25-3.21-4.78-3.32-9.14-1.36a20.79,20.79,0,0,0-3.68,2Q7.45,24.5,9.5,28.8Zm6.08,12.76a28.3,28.3,0,0,0,3.19-1.29c3.83-1.73,6.91-4.46,5.39-8.47C22.73,28,18.42,27.9,14,29.88q-1.66.74-3.3,1.53Q13.16,36.48,15.58,41.56Z"/><path class="cls-1" d="M38.46,26.13c-.25,3.29-.42,6.56-.54,9.83-1.3.4-2.61.82-3.91,1.25A251.63,251.63,0,0,1,36.56,5.7Q39.32,5,42.09,4.35A246,246,0,0,1,58.87,31.14c-1.39.22-2.77.46-4.15.71q-2.44-4.26-5.09-8.45C45.88,24.17,42.16,25.09,38.46,26.13Zm9.71-5.47q-2.47-3.81-5.09-7.56C41.89,11.4,41,9.82,40,8.29l-.1,0c-.1,1.83-.22,3.71-.43,5.61q-.59,4.56-1,9.1Q43.3,21.7,48.17,20.66Z"/><path class="cls-1" d="M59.63,1.64A44.82,44.82,0,0,1,68.51.12c5-.38,8.28.29,10.54,1.9a6.64,6.64,0,0,1,2.84,5.57c0,3.89-2.79,6.47-6.23,7.67v.13c2.59.68,4.15,2.77,4.94,5.82,1.1,4.1,1.82,6.94,2.45,8.08-1.35,0-2.71,0-4.06,0a41.86,41.86,0,0,1-2.29-7c-1.09-4-2.93-5.51-6.8-5.35-1.33.1-2.66.22-4,.35q.64,6.36,1.28,12.72c-1.3.13-2.6.28-3.9.44Q61.46,16.08,59.63,1.64Zm6,12.84q2.2-.23,4.41-.39c4.59-.34,7.46-2.61,7.38-6C77.33,4.3,73.94,2.7,69.05,3a20.27,20.27,0,0,0-4.51.75Q65.08,9.13,65.63,14.48Z"/><path class="cls-1" d="M88.46.28A43.55,43.55,0,0,1,97,.15c4.67.38,7.61,1.42,9.63,3.19a5.73,5.73,0,0,1,2.18,5.57c-.44,2.81-3,4.93-6.61,5.64v.09c3.11,1.06,6.42,3.93,5.7,8.25a8,8,0,0,1-3.51,5.45c-2.41,1.56-5.9,2-10.84,1.61-2.69-.19-4.75-.45-6.06-.67Q88,14.79,88.46.28Zm4,12.27c1.32.08,2.64.17,3.95.28,4.58.38,7.53-1.33,7.9-4.16.45-3.42-2.54-5.2-7.21-5.58a21.52,21.52,0,0,0-4.09,0C92.8,6.23,92.61,9.39,92.43,12.55Zm-.82,14.11a24.94,24.94,0,0,0,3.33.41c4.11.32,8.07-.6,8.66-4.85.55-4-3.11-6.17-7.8-6.54-1.18-.09-2.36-.18-3.54-.24C92,19.18,91.83,22.92,91.61,26.66Z"/><path class="cls-1" d="M131.24,22.72q-6.23-1.91-12.56-3.3-1.14,5.19-2.3,10.38c4.4,1,8.77,2.14,13.09,3.51l-1,3a155,155,0,0,0-16.68-4.24l5.64-28.95A181.91,181.91,0,0,1,136.59,8c-.31,1-.63,2-.94,3q-7.07-2.19-14.26-3.79c-.68,3-1.35,6.07-2,9.1q6.43,1.43,12.79,3.37C131.85,20.71,131.55,21.72,131.24,22.72Z"/><path class="cls-1" d="M143.08,10.54a46.08,46.08,0,0,1,8.74,2.68c4.73,1.94,7.43,4,8.77,6.53a6.6,6.6,0,0,1,.09,6.28c-1.76,3.48-5.48,4.49-9.16,4l-.06.12c2.07,1.81,2.55,4.39,1.9,7.48-.85,4.16-1.47,7-1.4,8.35-1.24-.64-2.49-1.25-3.74-1.84-.1-1,.36-3.56,1.06-7.29.82-4.09-.2-6.27-3.79-7.89-1.26-.52-2.52-1-3.79-1.51l-4.56,11.94c-1.24-.47-2.49-.93-3.74-1.37Zm-.35,14.19c1.4.53,2.8,1.09,4.19,1.66,4.33,1.8,8,1.09,9.43-2C158,21,155.6,18,151,16.05a21.34,21.34,0,0,0-4.43-1.38Q144.66,19.7,142.73,24.73Z"/></g></g></svg>