<svg xmlns="http://www.w3.org/2000/svg" viewBox="0 0 147.21 232.96"><defs><style>.cls-1{fill:#fef6f3;}.cls-2{fill:#312c29;}</style></defs><title>client</title><g id="Layer_2" data-name="Layer 2"><g id="OBJECTS"><path class="cls-1" d="M147.21,51.64A29.82,29.82,0,0,0,143.06,37c1.43-.91.95-3.09.73-4.1a22.09,22.09,0,0,0-1.92-5.18,25.92,25.92,0,0,0-4.76-6.58,20,20,0,0,0-4-3.12,15.94,15.94,0,0,0-5.32-1.94,23,23,0,0,0-4-.33,49.06,49.06,0,0,0-5.33.38l-.41.05a47.6,47.6,0,0,1-6,.48h-.81a15.78,15.78,0,0,1-2-.19A9.31,9.31,0,0,1,105.85,15a21.69,21.69,0,0,1-3.65-3.43c-.36-.4-.72-.81-1.07-1.22A45.38,45.38,0,0,0,98,7a17.58,17.58,0,0,0-6.2-4,11.06,11.06,0,0,0-3.72-.66l-.55,0h-.09l-.24,0c-.22,0-.51,0-.84.1a4.89,4.89,0,0,0-1.6.55c-.29-2-1.2-3.1-2.59-3.1h0a2.09,2.09,0,0,0-.43,0h0C80.59.27,80,1.15,79.9,2.67A9.52,9.52,0,0,1,79.78,4a8.39,8.39,0,0,1-1.93,4A18.3,18.3,0,0,1,72.3,12.1,3.76,3.76,0,0,0,72,9.24a2.21,2.21,0,0,0-1.68-1h-.16A2.47,2.47,0,0,0,67.91,10a7.28,7.28,0,0,1-.53,1A6.29,6.29,0,0,1,66,12.5a8.35,8.35,0,0,0,.92-2.78,4.62,4.62,0,0,0-.7-3.62,2.27,2.27,0,0,0-1.69-.78h-.2c-1.12.1-1.82.84-2.1,2.21a5.36,5.36,0,0,1-.26,1,5.73,5.73,0,0,1-2.12,2.65,18.4,18.4,0,0,1-6,2.25,44.59,44.59,0,0,0-9.36,3.36,37.33,37.33,0,0,0-8.36,5.64c-.3.28-.61.56-.9.85a2.31,2.31,0,0,0-.37,0h0c-.38,0-1.54,0-3.59,2.12a17.81,17.81,0,0,0-3.7,6,19.53,19.53,0,0,0-.91,3.35,7.1,7.1,0,0,0-2.07-.62,6.36,6.36,0,0,0-.77,0,4.82,4.82,0,0,0-2.05.43,2.69,2.69,0,0,0-1.7,2.21,11.67,11.67,0,0,0-1.31.42c-.87.35-3.26,1.32-3.29,3.19a17.5,17.5,0,0,0-6.73,6.41c-.39.67-2.3,4.1-1.5,6a2.3,2.3,0,0,0,.85,1,41.94,41.94,0,0,0-3.57,5.12A38.71,38.71,0,0,0,.75,67.32c-.64,2.14-1.6,5.36.75,6.24,0,.57,0,1,0,1.43.09,1.2.32,4.21,2.37,4.66a141.31,141.31,0,0,0,2.84,17.4l.1.48c.66,3.18,1.47,6.46,3.36,9.2a8.51,8.51,0,0,0-.9.57,8.1,8.1,0,0,0-2,2.11A10.9,10.9,0,0,0,5.74,115a23.12,23.12,0,0,0,.65,5.58A28.1,28.1,0,0,1,7,125.44c0,1.25,0,2.53,0,3.88v1.85a37.09,37.09,0,0,0,.45,6.35,27,27,0,0,0,1.73,5.91A26.74,26.74,0,0,0,15,152a14.12,14.12,0,0,0,3.47,2.67,7.9,7.9,0,0,0,1.09.46c-.33,1.82-.59,3.65-.84,5.42-.08.52-.15,1-.22,1.55-.13.35-.25.73-.36,1.11a7,7,0,0,0-.25-1.17,7.22,7.22,0,0,0-1.43-2.62,6.55,6.55,0,0,0-3.21-2.1,7.25,7.25,0,0,0-2.1-.3,9,9,0,0,0-6,2.4,9.93,9.93,0,0,0-2.65,4,12.87,12.87,0,0,0-.68,4.81,16.27,16.27,0,0,0,1,4.82,12.9,12.9,0,0,0,3,4.79,10.47,10.47,0,0,0,2.68,1.94,14.34,14.34,0,0,0,2.74,1c.82.21,1.65.4,2.52.58a7.88,7.88,0,0,0,2.06,1.53,65,65,0,0,0,1.28,11.78c1.3,6.13,2.6,7.36,4.28,7.36a2.41,2.41,0,0,0,1.37-.42A16.76,16.76,0,0,0,24,204.34a18.11,18.11,0,0,0,2,2.86,33.23,33.23,0,0,0,3.72,3.67l0,0c2.39,2,3.59,3,5,3a2.58,2.58,0,0,0,1.31-.36,2.45,2.45,0,0,0,1.09-1.39c.6.4,1.22.8,1.87,1.2a32.8,32.8,0,0,0,2.84,2.82,41.87,41.87,0,0,0,11.06,6.94,15.44,15.44,0,0,0,5.34,1.51,2.66,2.66,0,0,0,2.51-1.36h0a17.36,17.36,0,0,1,7.28,6l.12.18c.79,1.23,1.93,3,3.63,3.36a2.85,2.85,0,0,0,1,.17c.56,0,2.27,0,4.68-3.71a17.32,17.32,0,0,1,7.29-6h0a2.66,2.66,0,0,0,2.51,1.36,15.54,15.54,0,0,0,5.34-1.5,42.22,42.22,0,0,0,11.06-6.95,32.8,32.8,0,0,0,2.84-2.82c.65-.4,1.27-.8,1.88-1.2a2.41,2.41,0,0,0,1.09,1.39,2.51,2.51,0,0,0,1.3.36c1.39,0,2.59-1,5-3l0,0a33.07,33.07,0,0,0,3.71-3.66,17.65,17.65,0,0,0,3.24-5.55,2.31,2.31,0,0,0,.95.37,2,2,0,0,0,.42,0c1.68,0,3-1.23,4.29-7.36A66.13,66.13,0,0,0,129.58,183a8.26,8.26,0,0,0,2.16-1.58c.84-.18,1.64-.37,2.43-.57a15.52,15.52,0,0,0,2.76-1,10,10,0,0,0,2.68-1.91,12.55,12.55,0,0,0,3-4.75,16.47,16.47,0,0,0,1-4.79,11.15,11.15,0,0,0-3.22-8.88,9,9,0,0,0-6.08-2.5,7.19,7.19,0,0,0-1.93.25,6.74,6.74,0,0,0-3.28,2,7.45,7.45,0,0,0-1.49,2.61,7.29,7.29,0,0,0-.3,1.6c-.15-.5-.29-1-.45-1.4s-.14-1-.22-1.55c-.24-1.76-.5-3.56-.83-5.37a7.46,7.46,0,0,0,1.24-.53,13.88,13.88,0,0,0,3.47-2.67,26.65,26.65,0,0,0,5.74-8.55,27.39,27.39,0,0,0,1.73-5.89,37.29,37.29,0,0,0,.45-6.36c0-.62,0-1.24,0-1.85,0-1.35,0-2.63,0-3.85a27.52,27.52,0,0,1,.64-4.89,23.94,23.94,0,0,0,.66-5.6,10.89,10.89,0,0,0-1.63-5.58,7.75,7.75,0,0,0-2-2.11,6.88,6.88,0,0,0-1.8-1,25.68,25.68,0,0,0,3.1-8.81l.1-.5c1.78-8.59,3.8-18.3,2.74-27.36.22-.37.44-.74.64-1.11a28.89,28.89,0,0,0,2.69-7.27c.13-.57.24-1.13.33-1.69h.26a2.26,2.26,0,0,0,1.6-.67C147.2,57.57,147.23,53,147.21,51.64Zm-15.12,79.52v.35a2.2,2.2,0,0,0-1-.26h-.15c-1.91.13-2.2,2-2.42,3.41-.1.6-.21,1.35-.39,2.2a21.06,21.06,0,0,1-1.07,3.61,11.3,11.3,0,0,1-.89,1.81,9.06,9.06,0,0,1-1.06,1.4l-.06-1.58c-.11-2.9-.22-5.51-.33-7.78a39.82,39.82,0,0,0,2.73-6.16,2.35,2.35,0,0,0,.69.1c1.16,0,2.05-.78,2.64-2.32a11.94,11.94,0,0,0,.67-3.57c0-.58.05-1.19.06-1.84s0-1.51.08-2.26a4.75,4.75,0,0,1,.92-2.82,1.83,1.83,0,0,1,.44-.36l0,.09a7.23,7.23,0,0,1,.28,1.35c.05.5.1.94.15,1.35s-.19.88-.3,1.35a31.08,31.08,0,0,0-.9,5.93c-.09,1.51-.09,3.07-.08,4.58ZM16.74,169.3c-.53,0-1.07,0-1.6,0a26.12,26.12,0,0,1-6.33-.78c-.07-.28-.13-.56-.17-.83a5.08,5.08,0,0,1,.84-3.94l0,0a3.15,3.15,0,0,1,2.23-1.16l.22,0h0a1.86,1.86,0,0,1,1.29,1.07,1.71,1.71,0,0,1,.19,1.09,1.05,1.05,0,0,1-.13.31,1.85,1.85,0,0,0-.16.32,2.1,2.1,0,0,0-.13,1.26,2.16,2.16,0,0,0,1,1.41,2.18,2.18,0,0,0,1.16.34,2.59,2.59,0,0,0,.55-.07,2.13,2.13,0,0,0,1.2-.83l.17-.21C17,168,16.86,168.62,16.74,169.3Zm111.78-1.78,0,.06a2.19,2.19,0,0,0,1.73.86,2.07,2.07,0,0,0,.87-.19,2.15,2.15,0,0,0,1.18-1.31,2.19,2.19,0,0,0-.22-1.83,1.06,1.06,0,0,1-.13-.28,1.64,1.64,0,0,1,.15-1.05,1.93,1.93,0,0,1,1.27-1.13l.07,0,.26,0a3.14,3.14,0,0,1,2.18,1.11l0,0a4.92,4.92,0,0,1,.89,3.92,9.81,9.81,0,0,1-.32,1.46,25.89,25.89,0,0,1-5,.47,28,28,0,0,1-2.88-.14c-.13-.81-.28-1.6-.43-2.35A4.48,4.48,0,0,0,128.52,167.52Z"/><path class="cls-2" d="M145,51.67a27.76,27.76,0,0,0-3.87-13.59,24.9,24.9,0,0,0-2.39-3.3,32.18,32.18,0,0,0-3-6.63,22,22,0,0,0-4.51-5.35,18.13,18.13,0,0,0-3.73-2.46,12.25,12.25,0,0,1,3.47,1.3A16.93,16.93,0,0,1,134.27,24a26.92,26.92,0,0,1,4.42,5.39c2.12,3.41,2.8,5.9,3.12,5.81.13,0,.12-.69-.14-1.84a19.9,19.9,0,0,0-1.73-4.67,23.92,23.92,0,0,0-4.36-6A17.49,17.49,0,0,0,132,19.91a13.78,13.78,0,0,0-4.6-1.68,31.18,31.18,0,0,0-9.1.12,44.73,44.73,0,0,1-7.06.48,16.87,16.87,0,0,1-2.41-.23,11.49,11.49,0,0,1-4.28-1.8,23.5,23.5,0,0,1-4-3.76c-1.28-1.42-2.53-3-4.06-4.43a15.88,15.88,0,0,0-5.44-3.5,8.75,8.75,0,0,0-3.43-.52c-.3,0-.58,0-.9.08a2.77,2.77,0,0,0-1.09.42,2.49,2.49,0,0,0-.77.92,8.51,8.51,0,0,0-.35.84l-.16.4-.08.24,0,.09a.58.58,0,0,0,0,.23c-.17,0-.18.05-.08.17h0l-1,1.33-2,2.69-1,1.32-.53.67-.26.33c-.1.11,0,0-.15.14a21.6,21.6,0,0,1-2.79,1.77,41.74,41.74,0,0,1-12,3.65,51.92,51.92,0,0,0,8.93-3.82,20.89,20.89,0,0,0,7.23-5.75A10.12,10.12,0,0,0,82.7,4.4c0-1.51-.42-2.27-.54-2.24s0,.83-.25,2.18a10.6,10.6,0,0,1-2.42,5.1,21.62,21.62,0,0,1-7,5,59.32,59.32,0,0,1-10,4c-1.4.41-2.79.75-4.17,1.05,1.4-.41,2.72-.79,4-1.19A19.52,19.52,0,0,0,66,16.7a8.69,8.69,0,0,0,4-4.18c.51-1.31.37-2.1.25-2.1s-.3.7-1,1.74a9,9,0,0,1-3.92,3.26,48.27,48.27,0,0,1-7.67,2.26c-3,.76-6.25,1.63-9.67,2.57-.73.19-1.45.39-2.17.6l.59-.32a49,49,0,0,1,8.49-3.2c2.75-.78,5.36-1.72,7.14-3.28a7.78,7.78,0,0,0,2.77-4.61c.18-1.3-.14-2-.25-1.95s-.13.69-.52,1.76a8,8,0,0,1-2.9,3.68,19.38,19.38,0,0,1-6.73,2.59,42.68,42.68,0,0,0-8.91,3.19A35,35,0,0,0,37.58,24a28.63,28.63,0,0,0-3.07,3.22c-.33.37-.63.75-.91,1.12.92-1.64,1.62-2.68,1.38-2.93s-1.06.29-2.17,1.42a16.1,16.1,0,0,0-4.24,11.31c0,.37.05.69.09,1l-.1-.15a8.42,8.42,0,0,0-2-1.93,5.42,5.42,0,0,0-2.22-.86,3,3,0,0,0-1.62.18c-.35.17-.49.37-.45.5.09.28.81.26,1.7.7a7.87,7.87,0,0,1,2.38,1.89,7.74,7.74,0,0,0-4.33-1,8.57,8.57,0,0,0-2.44.58c-1.3.52-2,1-1.89,1.3s1,.23,2.23.09a16.08,16.08,0,0,1,2.15-.1l.35,0a16,16,0,0,0-3.5.71,15.57,15.57,0,0,0-5.17,3,14.89,14.89,0,0,0-3.11,3.68C9.21,50.15,9.06,51.89,9.29,52s.93-1.4,2.5-3.36a16.91,16.91,0,0,1,7.73-5.53,16.79,16.79,0,0,1,8.05-.53l.19.13c-2.41-.35-4.91,1-7.07,2.31A25,25,0,0,0,15,49.2a16.31,16.31,0,0,0-1.69,2.27A22.38,22.38,0,0,0,11.63,53,38.25,38.25,0,0,0,2.82,67.93c-.64,2.15-.79,3.54-.53,3.62S3.4,70,4.65,67.45c-.07.24-.15.48-.21.72a19.85,19.85,0,0,0-.75,6.66c.13,1.72.49,2.74.76,2.72.56,0,.58-3.77,1.77-8.21-1.19,9,.92,19,2.75,27.75.72,3.51,1.64,7.16,4.1,9.76.45.47.95.91,1.41,1.37a4.93,4.93,0,0,0-2.16,0,4.59,4.59,0,0,0-1.72.79,5.76,5.76,0,0,0-1.43,1.55,8.86,8.86,0,0,0-1.28,4.47,22.18,22.18,0,0,0,.61,5.08,29.55,29.55,0,0,1,.69,5.24c.09,1.84,0,3.78,0,5.8a36,36,0,0,0,.42,6,25.89,25.89,0,0,0,1.59,5.42,24.49,24.49,0,0,0,5.29,7.87,12.07,12.07,0,0,0,2.93,2.28,5.43,5.43,0,0,0,2.64.64c-.08.44-.16.88-.25,1.33-.52,2.63-.86,5.28-1.24,7.91-.3.85-.62,1.89-.92,3.11a52.73,52.73,0,0,0-1.06,5.58,28.28,28.28,0,0,1-11.55-1,12.27,12.27,0,0,1-.57-2.28,7.09,7.09,0,0,1,1.36-5.68,5.11,5.11,0,0,1,4.41-1.88,4,4,0,0,1,3,2.28,3.81,3.81,0,0,1,.33,2.55,4.24,4.24,0,0,1-.39,1,3.64,3.64,0,0,0,.58-1.34,3.93,3.93,0,0,0,0-1.45A4.81,4.81,0,0,0,14.36,161a4.29,4.29,0,0,0-1.22-.8,4.65,4.65,0,0,0-1.42-.32,5.48,5.48,0,0,0-2.83.64,6.69,6.69,0,0,0-2.22,1.87A7.25,7.25,0,0,0,5.46,165a11.06,11.06,0,0,0,.32,5.79,9.82,9.82,0,0,0,3.1,4.87c1.56,1.24,3.58,1.55,5.47,1.94A71.16,71.16,0,0,0,26,178.81a54.55,54.55,0,0,0,5.86,0,18.75,18.75,0,0,0,2.9-.41,14.88,14.88,0,0,0,2.76-1,33.6,33.6,0,0,0,9.33-7c1.39-1.38,2.71-2.82,4-4.26A49,49,0,0,1,55,162a13.52,13.52,0,0,1,5.06-2.88,8.14,8.14,0,0,1,5.73.3h0l-.23-.07a4.59,4.59,0,0,0-.68-.2,7.45,7.45,0,0,0-2.66-.11,10.17,10.17,0,0,0-3.89,1.38A18,18,0,0,0,54.17,164c-2.76,3.1-5.78,7.28-10.19,11.11a23.87,23.87,0,0,1-8.09,4.8,20,20,0,0,1-5,.76c-1.67.06-3.31,0-4.93-.06l-2.44-.11q-1.23-.08-2.43-.18c-1.06-.11-2.1-.24-3.13-.39h0v.29l-.22-.06c-1.5-.41-2.37-.62-2.46-.42s.61.75,2,1.51c.2.11.42.23.66.34a64.73,64.73,0,0,0,1.24,12.64c.77,3.6,1.67,5.73,2.21,5.64.75-.13.69-3.91.62-9.5.34.88.73,1.76,1.13,2.62,0,.4.08.82.14,1.24a36.33,36.33,0,0,0,1.22,5.92,15.92,15.92,0,0,0,1.33,3.09,16.74,16.74,0,0,0,1.78,2.54,30.38,30.38,0,0,0,3.48,3.42c2.05,1.72,3.31,2.76,3.79,2.46.23-.15.23-.65,0-1.42a13.94,13.94,0,0,0-1.59-2.94c-.48-.72-1.05-1.5-1.63-2.31l.5.49a48.85,48.85,0,0,0,8.23,6.17,32.38,32.38,0,0,0,2.87,2.87,39.56,39.56,0,0,0,10.48,6.58c2.9,1.23,4.83,1.63,5.09,1.14s-1.21-1.81-3.66-3.63l-.08-.06c5.6,2.12,11.39,4.3,14.76,9.49.53.82,1.64,2.65,2.56,2.62l0,0c1,.47,2.56-1.76,3.15-2.66,3.37-5.19,9.16-7.37,14.76-9.49l-.08.06c-2.45,1.82-3.92,3.12-3.66,3.63s2.19.09,5.09-1.14a39.72,39.72,0,0,0,10.48-6.58,31,31,0,0,0,2.86-2.87,48.52,48.52,0,0,0,8.24-6.17l.5-.49c-.58.81-1.15,1.59-1.63,2.31a13.94,13.94,0,0,0-1.59,2.94c-.27.77-.27,1.27,0,1.42.48.3,1.74-.74,3.79-2.46a31.21,31.21,0,0,0,3.48-3.42,16.74,16.74,0,0,0,1.78-2.54,15.29,15.29,0,0,0,1.32-3.09,35.39,35.39,0,0,0,1.23-5.92c.06-.42.1-.84.14-1.24.4-.86.78-1.74,1.13-2.62-.07,5.59-.13,9.37.62,9.5.54.09,1.44-2,2.2-5.64a64.14,64.14,0,0,0,1.25-12.58l.76-.4c1.41-.76,2.1-1.33,2-1.51s-1,0-2.46.42l-.32.09V180l1.67-.25c1.55-.28,3-.57,4.53-1a12.75,12.75,0,0,0,2.34-.85,8.21,8.21,0,0,0,2.12-1.5,10.7,10.7,0,0,0,2.49-4,14,14,0,0,0,.87-4.15,9,9,0,0,0-2.53-7.18,6.46,6.46,0,0,0-6-1.74,4.53,4.53,0,0,0-2.23,1.36,5.24,5.24,0,0,0-1.06,1.85,4.13,4.13,0,0,0,.06,2.81,3.63,3.63,0,0,0,.54.9,3.64,3.64,0,0,1-.58-1.34,3.93,3.93,0,0,1,0-1.45A4.88,4.88,0,0,1,131.1,161a4.44,4.44,0,0,1,1.22-.8,4.65,4.65,0,0,1,1.42-.32,5.48,5.48,0,0,1,2.83.64,6.69,6.69,0,0,1,2.22,1.87A7.44,7.44,0,0,1,140,165a11.07,11.07,0,0,1-.33,5.79,9.76,9.76,0,0,1-3.09,4.88c-1.56,1.23-3.58,1.54-5.48,1.93a71.16,71.16,0,0,1-11.65,1.22,54.55,54.55,0,0,1-5.86,0,18.75,18.75,0,0,1-2.9-.41,15.14,15.14,0,0,1-2.76-1,33.6,33.6,0,0,1-9.33-7c-1.39-1.38-2.71-2.82-4-4.26A50.67,50.67,0,0,0,90.46,162a13.55,13.55,0,0,0-5-2.88,8.14,8.14,0,0,0-5.73.3h0l.21-.11a5.92,5.92,0,0,1,.65-.31,7.57,7.57,0,0,1,2.74-.53,10.83,10.83,0,0,1,4.39.92,18.56,18.56,0,0,1,4.91,3.33c1.63,1.46,3.23,3.14,5,4.86a63.41,63.41,0,0,0,5.84,5.15,22.73,22.73,0,0,0,7.13,3.85,17.42,17.42,0,0,0,3.82.48c-.74-.12-1.48-.26-2.24-.46a20.85,20.85,0,0,1-5.94-2.65,17.72,17.72,0,0,1-4-3.51,15.32,15.32,0,0,1-1.92-3c-.19-.37-.29-.67-.38-.87l-.12-.31h0a17.39,17.39,0,0,0,5.36,5.89,22.84,22.84,0,0,0,7.26,3.34c5.2,1.39,10.66,1.2,16,.6h0l-1.17.29,1.39-.17c1.46-.21,3-.46,4.29-.74a9,9,0,0,0,1.77-.54,5.14,5.14,0,0,0,1.38-.88,8.6,8.6,0,0,0,2.1-3.11,29.2,29.2,0,0,1-11.39.4,54.08,54.08,0,0,0-1.07-5.67c-.3-1.22-.62-2.26-.92-3.11-.39-2.63-.72-5.28-1.24-7.91-.09-.45-.17-.89-.25-1.33a5.35,5.35,0,0,0,2.78-.64,12.3,12.3,0,0,0,2.94-2.28,24.48,24.48,0,0,0,5.28-7.87,24.74,24.74,0,0,0,1.59-5.42,36,36,0,0,0,.42-6c0-2-.05-4,0-5.8a29.55,29.55,0,0,1,.69-5.24,22.18,22.18,0,0,0,.61-5.08,8.67,8.67,0,0,0-1.28-4.47,5.73,5.73,0,0,0-1.42-1.55,4.85,4.85,0,0,0-4.65-.57,3.05,3.05,0,0,0-1.42,1.15c-.22.36-.24.59-.19.61s.56-.69,1.87-1a4.29,4.29,0,0,1,2.35.13,3.83,3.83,0,0,1,1.23.71,4.63,4.63,0,0,1,1,1.28c0,.05.05.11.08.16a3.06,3.06,0,0,0-1.39-.6,4.71,4.71,0,0,0-1.63.06,5.47,5.47,0,0,0-2.76,1.66,6.76,6.76,0,0,0-1.5,2.71,10.56,10.56,0,0,0-.38,2.69,39.32,39.32,0,0,0,.29,4.28c.26,2.32,0,3.72.26,3.83s.39-.27.65-.94a10.31,10.31,0,0,0,.53-2.91c.08-1.24,0-2.67.14-4.16A6.74,6.74,0,0,1,130.9,114a3.62,3.62,0,0,1,1.72-1.1,2.55,2.55,0,0,1,.9-.07,1,1,0,0,1,.59.22,2.4,2.4,0,0,1,.51.66,4.77,4.77,0,0,1,.37.83,10.43,10.43,0,0,1,.37,1.76c.07.63.13,1.19.2,1.69q-.18.86-.39,1.77a29.37,29.37,0,0,0-.85,5.53c-.11,1.93-.07,3.91-.07,5.89a36.82,36.82,0,0,1-.35,5.67,25.31,25.31,0,0,1-6,12.63,12.1,12.1,0,0,1-2.46,2.28,4.9,4.9,0,0,1-2.26.84h0c0-.08,0-.16,0-.24a7.41,7.41,0,0,1,1.1-1.84c.91-1.17,2.26-2.28,3.61-3.72a12,12,0,0,0,1.77-2.37,13.24,13.24,0,0,0,1.1-2.5,17.52,17.52,0,0,0,.84-4.42c.13-2.57-.34-4.1-.59-4.08s-.35,1.56-.83,3.89a24.82,24.82,0,0,1-1.18,4,14.6,14.6,0,0,1-1,2.14,12.06,12.06,0,0,1-1.55,2c-1.1,1.18-2.35,2.31-3.33,3.6-.09-2.41-.17-4.69-.25-6.81-.13-3.18-.25-6-.37-8.37A37.32,37.32,0,0,0,127.36,117c.13-2.73,0-5.7,1.65-7.89a27.1,27.1,0,0,1,2.25-2.3c2.46-2.6,3.38-6.25,4.1-9.76,1.84-8.86,4-18.83,2.73-27.92.35-.54.67-1.09,1-1.64a27,27,0,0,0,2.49-6.71,34.75,34.75,0,0,0,.53-11.26,51.18,51.18,0,0,0-1.24-6.93c-.23-.92-.42-1.56-.55-1.94a33,33,0,0,1,3.32,11.08c.41,3.45.31,5.65.63,5.68S145.1,55.31,145,51.67ZM130.48,56a6,6,0,0,0-1.86-.42,8,8,0,0,0-3.72.78,18.21,18.21,0,0,0-3.26,2c-2,1.57-3.92,3.3-5.89,4.93a54.81,54.81,0,0,1-6.15,4.58,26.73,26.73,0,0,1-7,3.16,19.42,19.42,0,0,1-3.78.65A16.84,16.84,0,0,1,95,71.46a13,13,0,0,1-6.78-3.36h0l.48.4a11.94,11.94,0,0,0,1.48,1,14,14,0,0,0,6.16,1.78,19,19,0,0,0,9.22-2,44.31,44.31,0,0,0,9.7-6.59c1.62-1.35,3.19-2.71,4.75-4a19.36,19.36,0,0,1,5-3.14,8.63,8.63,0,0,1,2.81-.6,6.53,6.53,0,0,1,2.69.48A7,7,0,0,1,134,58.81a8.77,8.77,0,0,1,.92,3.74,12.31,12.31,0,0,1-.24,2.85,16.67,16.67,0,0,1-.44,1.75c-.13.39-.19.59-.19.59h0a12.67,12.67,0,0,0,.16-7.56A7.49,7.49,0,0,0,132.1,57,5.86,5.86,0,0,0,130.48,56ZM108.11,163.36c-.75-1.05-1.48-2.26-2.39-3.53a16.29,16.29,0,0,0-3.5-3.67,15.86,15.86,0,0,0-2.39-1.47,19.28,19.28,0,0,1,5.12,2.38,30.79,30.79,0,0,1,4.32,3.45c0,.56-.08,1.1-.12,1.62l-.11,2-.72-.48Zm-83.2,24a4.47,4.47,0,0,1,.8-.91h0a13.92,13.92,0,0,0-.24,7.19h0a4,4,0,0,1-.74-1,4.82,4.82,0,0,1,.18-5.32Zm30.38-19.65a16.31,16.31,0,0,1,3.92-3.77,9.43,9.43,0,0,1,5.68-1.56,8.87,8.87,0,0,1,4.43,1.52,7.82,7.82,0,0,1,2.13,2.15,6.43,6.43,0,0,1,.39.69L72,167h0a8.93,8.93,0,0,0-5.59-3,8.32,8.32,0,0,0-3.22.17,10.55,10.55,0,0,0-2.95,1.31c-3.64,2.4-5.94,6.32-9.64,8.65h0l.68-.8c.42-.54,1-1.27,1.65-2.24S54.31,169,55.29,167.71Zm4.44-13.22a32.48,32.48,0,0,0-7.51-.6,21.46,21.46,0,0,0-4.54.66,16.91,16.91,0,0,0-4.67,2,28.24,28.24,0,0,0-3.85,3L36,162.35v-.21c0-.44-.06-.89-.1-1.36a31.44,31.44,0,0,1,4.59-3.71,19.34,19.34,0,0,1,7.65-2.95,37.85,37.85,0,0,1,8.37-.28,24,24,0,0,1,6.63,1.45l-.4,0C61.89,155,60.88,154.72,59.73,154.49Zm-31.58.73q-.75-3.74-1.44-7.49c.23.44.47.87.74,1.3a18.64,18.64,0,0,0,2.77,3.38,25.84,25.84,0,0,1,3,2.91,8.36,8.36,0,0,1,1.5,3.4c.1.48.18,1,.25,1.43-.18.18-.34.37-.5.55-2.46,2.82-3.8,4.81-3.86,5.18C28.74,162.44,28.89,158.82,28.15,155.22Zm2.75,11.21-.28-.5c.27,0,1.86-1.74,4.49-4.38,0,.22,0,.44.07.66s0,.55.08.83c-1.52,1.36-2.94,2.61-4.18,3.67Zm37.61-11.62.53-.14.15.14a5.92,5.92,0,0,0,2.12,1.08,6,6,0,0,0,3,0,5.92,5.92,0,0,0,2.12-1.08h0a10.66,10.66,0,0,0,2.57.28,6.4,6.4,0,0,0,1.92-.33,26,26,0,0,0-2.54,1.41,9.48,9.48,0,0,0-5.65,6,9.46,9.46,0,0,0-5.65-6c-.56-.36-1.24-.75-2-1.16a5.88,5.88,0,0,0,.9.08A10.5,10.5,0,0,0,68.51,154.81Zm28.87,19.11h0s-.33-.18-.9-.55a24.48,24.48,0,0,1-2.33-1.71,26.41,26.41,0,0,1-3.1-3C90,167.45,89,166,87.78,164.81A9.72,9.72,0,0,0,84,162.2a10.31,10.31,0,0,0-6.53-.23c-.33.09-.57.19-.74.25l-.25.09h0A9.51,9.51,0,0,1,82.86,161a9.39,9.39,0,0,1,5.72,3.05c1.52,1.62,2.68,3.51,4.12,5.19A38.31,38.31,0,0,0,97.38,173.92ZM114,182.59h0a33.55,33.55,0,0,1-19.44-4.18h0l2.87.83c1.75.5,4.13,1.09,6.76,1.66s5.06,1,6.86,1.27Zm-46.29,6.27a4,4,0,0,1-1.85,1.93,7.7,7.7,0,0,1-3.39.54,14.84,14.84,0,0,1-4.07-.59A10.09,10.09,0,0,1,54.91,189a9,9,0,0,1-2.26-2.72,6.88,6.88,0,0,1-.79-3,6.55,6.55,0,0,1,.57-2.67c.2-.45.45-.92.69-1.41a27.57,27.57,0,0,0,3.36-2.93,6.71,6.71,0,0,0,.72.61,15.32,15.32,0,0,0,3.44,1.95c.4.17.84.33,1.29.48l-.53-.07c-3.25-.44-5.25-.83-5.29-.68a19.19,19.19,0,0,0,4.66,1.29,10.5,10.5,0,0,0,1.27.35,11.76,11.76,0,0,1,3.49,1.32c.13.08.24.17.36.25l.57.71.07.09a15.56,15.56,0,0,1,1.61,3.82A5.09,5.09,0,0,1,67.67,188.86Zm25.41-8.27a6.39,6.39,0,0,1,.56,2.67,6.61,6.61,0,0,1-.79,3A9,9,0,0,1,90.59,189a10.09,10.09,0,0,1-3.45,1.78,14.84,14.84,0,0,1-4.07.59,7.7,7.7,0,0,1-3.39-.54,3.93,3.93,0,0,1-1.84-1.93,5,5,0,0,1-.47-2.49,14.68,14.68,0,0,1,1.12-2.93c.34-.5.76-1.14,1.26-1.79a2.68,2.68,0,0,1,.85-.73c.3-.15.67-.25,1-.38,2-.26,3.9-.57,5.44-.91a40.67,40.67,0,0,0,4.4-1.17c.32.26.64.52,1,.77C92.64,179.7,92.88,180.15,93.08,180.59Zm-2-2.39c-.9.15-2.35.42-4.21.72-.57.1-1.19.19-1.84.28.4-.15.79-.31,1.15-.47a16.6,16.6,0,0,0,3.35-1.92C90.05,177.28,90.56,177.75,91.1,178.2Zm-17.58-9.56a4.37,4.37,0,0,0,.65-.23c.31,0,1-.31,2.19-.42a9.55,9.55,0,0,1,5.76,1.59,19,19,0,0,1,3.26,2.79l.31.33c-.74.09-2,.28-3.55.5a74.09,74.09,0,0,1-10.48.76,50.31,50.31,0,0,1-5.74-.39c-.87-.14-1.71-.24-2.48-.41l-1.11-.23-1-.27c-.43-.11-.82-.22-1.18-.33a17.75,17.75,0,0,1,3.22-2.75,10.31,10.31,0,0,1,3.87-1.5,4.75,4.75,0,0,0,1.49.08,10.14,10.14,0,0,1,1.5.08,6.66,6.66,0,0,1,.82.17c.3.08.65.19,1.08.27A3.55,3.55,0,0,0,73.52,168.64Zm-13.85,4.17c.43.18.9.36,1.43.54l1,.34,1.13.29c.78.22,1.63.35,2.52.52a44.14,44.14,0,0,0,5.88.48,52.23,52.23,0,0,0,10.6-1.07,31.8,31.8,0,0,0,3.67-.95c.94,1,1.91,2.12,3,3.27.09.1.2.19.29.28a23.18,23.18,0,0,1-3.32,1.56,26.34,26.34,0,0,1-5.51,1.38,43,43,0,0,1-7,.36c-2.49-.07-4.89-.19-7-.44a25.7,25.7,0,0,1-5.53-1.23,21.61,21.61,0,0,1-4.25-2.06C57.76,174.93,58.73,173.81,59.67,172.81Zm34.22,1a16.2,16.2,0,0,1-2.57-1.38A36.43,36.43,0,0,1,88,169.85,42.18,42.18,0,0,0,84.28,167a10.16,10.16,0,0,0-3.8-1.55,9.43,9.43,0,0,0-3.58.11,9.76,9.76,0,0,0-2.5.91,7.14,7.14,0,0,0-.66.38l-.24.14h0a8.93,8.93,0,0,1,5.59-3,8.36,8.36,0,0,1,3.23.17,10.68,10.68,0,0,1,3,1.31c3.64,2.4,5.94,6.32,9.64,8.64h0ZM37.73,195.9a15.41,15.41,0,0,1,.92-2.69c.28-.6.46-.92.46-.92h0a20,20,0,0,0,7.73,22.8h0s-.33-.14-.92-.46a15,15,0,0,1-2.37-1.57,16.7,16.7,0,0,1-5.82-17.16Zm67.4,8.73a26.43,26.43,0,0,0,1.38-8.59c0-1.14-.09-2.09-.16-2.74s-.13-1-.13-1h0a20,20,0,0,1-7.73,22.8h0l.72-.73c.45-.47,1.08-1.17,1.79-2.07A26.29,26.29,0,0,0,105.13,204.63Zm14-14.56a11.23,11.23,0,0,1,.24-2.47c.13-.68.26-1.15.26-1.15h0a13.92,13.92,0,0,1,.24,7.19h0s-.17-.46-.35-1.13A11.39,11.39,0,0,1,119.11,190.07Zm3.75-7.76a11.82,11.82,0,0,1-1.27.54c-.51.19-1.08.43-1.73.62a29.83,29.83,0,0,1-4.67,1.07,28.59,28.59,0,0,1-11.69-.69A29.89,29.89,0,0,1,99,182.24c-.62-.27-1.16-.57-1.64-.81s-.88-.48-1.2-.69l-1-.62h0a39.77,39.77,0,0,0,5.32,1.94,20.28,20.28,0,0,0,3.22,1,20.54,20.54,0,0,0,4.59.44,40.78,40.78,0,0,0,15.64-1.68h0Zm-13.1-17.73c.07-.75.15-1.53.23-2.37l.09-.92.16.15c2.48,2.48,4.07,4.22,4.51,4.47l-.29.52c-.13.21-.27.42-.41.63C112.6,166.31,111.16,165.47,109.76,164.58Zm5.07,1.18A31.22,31.22,0,0,0,111,160.7c-.24-.27-.5-.54-.76-.82.06-.39.12-.77.21-1.16a8.36,8.36,0,0,1,1.5-3.4,25.84,25.84,0,0,1,3-2.91,19.07,19.07,0,0,0,2.77-3.38c.38-.62.72-1.24,1-1.87q-.73,4-1.54,8.06C116.48,158.78,116.62,162.36,114.83,165.76ZM40.88,64.94a13.53,13.53,0,0,1-6.38-8.07h0s.15.26.4.74a15.2,15.2,0,0,0,1.24,1.84A18.76,18.76,0,0,0,41.43,64,31,31,0,0,0,48,66.78c.9.28,1.65.48,2.17.62l.82.22h0A21.65,21.65,0,0,1,40.88,64.94ZM28.25,45.59c.11-.52.19-.81.19-.81h0a21.85,21.85,0,0,0,1.73,10c1.5,3.09,4,5.52,6.42,7.88h0A24.65,24.65,0,0,1,34,61a20.35,20.35,0,0,1-2.53-2.22,13.65,13.65,0,0,1-2.43-3.45,12.55,12.55,0,0,1-1.16-4.09,16,16,0,0,1,0-3.39A18.56,18.56,0,0,1,28.25,45.59Zm69.6,25a11.59,11.59,0,0,1-4.22-.9,5.55,5.55,0,0,1-2.32-1.76,3.1,3.1,0,0,1-.4-.66L90.8,67h0A5,5,0,0,0,93.28,69a9.94,9.94,0,0,0,3.14.65,18.47,18.47,0,0,0,6.36-.7,19.16,19.16,0,0,0,10.32-7.26h0l-.47.91A15.23,15.23,0,0,1,111,64.91,16.57,16.57,0,0,1,103.08,70,15.87,15.87,0,0,1,97.85,70.6ZM90.77,58,89,58A9.51,9.51,0,0,0,84,59a3.86,3.86,0,0,0-1.63,1.76,4.47,4.47,0,0,0-.35,2.15,4.61,4.61,0,0,0,.44,1.59c.09.18.17.32.23.42l.1.15h0a4.35,4.35,0,0,1-1.46-3.67,4.13,4.13,0,0,1,2.11-3.33,7,7,0,0,1,4-.88,19.8,19.8,0,0,1,4,.78h-.67Zm-7.31,5.34a4.26,4.26,0,0,1,.8-2.26,4.4,4.4,0,0,1,4.4-1.42h0l-.4.11a6,6,0,0,0-1,.35,5.42,5.42,0,0,0-2.14,1.62A7.5,7.5,0,0,0,84,64.29c-.11.41-.19.78-.24,1l-.09.41h0A7.53,7.53,0,0,1,83.46,63.32Zm28-15.57a31.72,31.72,0,0,1-10.76,5.63,51.13,51.13,0,0,1-11.85,2,25.14,25.14,0,0,0-4.91.66A8.47,8.47,0,0,0,80.37,58,4.91,4.91,0,0,0,78.8,61a4.7,4.7,0,0,0,.38,2.57,3.88,3.88,0,0,0,1.06,1.33,2.15,2.15,0,0,0,.38.26l.13.08h0a4,4,0,0,1-2.23-2.89,4.81,4.81,0,0,1,0-1.89,5.09,5.09,0,0,1,.67-1.76,7.33,7.33,0,0,1,2.75-2.55,11.83,11.83,0,0,1,3.57-1.24c1.24-.25,2.5-.37,3.76-.5s2.51-.28,3.76-.47a51.67,51.67,0,0,0,7.39-1.68,31.29,31.29,0,0,0,13-7.49A21.7,21.7,0,0,0,120,31.39h0s0,.21,0,.62c0,.2,0,.45,0,.75s-.08.64-.12,1a19.65,19.65,0,0,1-2,6.29A24.85,24.85,0,0,1,111.5,47.75ZM76.71,63.44h0A7.68,7.68,0,0,1,80.2,53.1a16.6,16.6,0,0,1,5.92-1.17,12,12,0,0,0,5.8-1.54h0l-.19.16a6,6,0,0,1-.56.46,8.2,8.2,0,0,1-2.46,1.16,28.18,28.18,0,0,1-3.85.8,15,15,0,0,0-4.17,1.12A7.64,7.64,0,0,0,76.45,60a8.57,8.57,0,0,0,0,2.49A7.24,7.24,0,0,0,76.71,63.44Zm-2.57-1.11h0A9.12,9.12,0,0,1,74.58,54a11.27,11.27,0,0,1,6.8-5.06h0l-.59.36a17.45,17.45,0,0,0-1.52,1,14.87,14.87,0,0,0-3.73,4.2A11.76,11.76,0,0,0,74,59.82,9.61,9.61,0,0,0,74,61.64ZM72.08,44.2l0,.42h0a6.65,6.65,0,0,1,.73-4.91,10.54,10.54,0,0,1,3.48-3.64,13.66,13.66,0,0,1,4.73-1.79,35.91,35.91,0,0,1,5.06-.55c1.69-.1,3.39-.15,5.08-.33a40.31,40.31,0,0,0,5-.85A39.82,39.82,0,0,0,105.71,29h0l-.34.24c-.23.15-.56.38-1,.65a33.29,33.29,0,0,1-3.92,2.07A33.8,33.8,0,0,1,94.18,34a36.52,36.52,0,0,1-3.88.64c-1.35.14-2.73.21-4.12.29A28.31,28.31,0,0,0,78.7,36a10.85,10.85,0,0,0-4.9,3.3A7.36,7.36,0,0,0,72.1,43,6.66,6.66,0,0,0,72.08,44.2ZM138.48,56a10.12,10.12,0,0,0-3.31-5,7.48,7.48,0,0,0-1.71-1c-.22-.1-.4-.14-.52-.19l-.19-.07h0A6.94,6.94,0,0,1,137,51.59a9.2,9.2,0,0,1,2.5,4,16,16,0,0,1-.62,9.45h0s0-.28.06-.77.09-1.21.13-2.06A19.49,19.49,0,0,0,138.48,56ZM136.3,66.77a19.24,19.24,0,0,0,.51-2.37,11.56,11.56,0,0,0-1.06-7.21,8,8,0,0,0-2.54-2.89A8.94,8.94,0,0,0,130.14,53a16.15,16.15,0,0,0-2.38-.37l-.91,0h0a11.55,11.55,0,0,1,5.66.37,7.71,7.71,0,0,1,4.21,3.71,9.79,9.79,0,0,1,1.07,5.55,14,14,0,0,1-1.74,5.42h0ZM88.41,39.22a16.84,16.84,0,0,0-6.16,1.68,9.9,9.9,0,0,0-3.39,2.74,7.42,7.42,0,0,0-.67,1L78,45h0a9,9,0,0,1,3.21-4.15A14.57,14.57,0,0,1,86,38.66c3.45-.92,7-.71,10.57-.79a31.25,31.25,0,0,0,5.29-.48,22.4,22.4,0,0,0,5.06-1.6,22.77,22.77,0,0,0,8.35-6.43h0l-.24.36a9.78,9.78,0,0,1-.72,1,20.59,20.59,0,0,1-3.22,3.36A21.23,21.23,0,0,1,101,38.72a30.5,30.5,0,0,1-4.41.37C93.58,39.14,90.85,39,88.41,39.22Zm-18.84,22a17.09,17.09,0,0,1-2.3-1.35,7.27,7.27,0,0,1-1.94-1.81,5.54,5.54,0,0,1-.8-2.51,17,17,0,0,1,0-2.67h0s.22.63.48,1.56a11,11,0,0,0,1.21,3,9.15,9.15,0,0,0,1.11,1.32L68.48,60c.66.72,1.09,1.22,1.09,1.22ZM64,58a4.31,4.31,0,0,0,2.19,2.31l.43.22.17.16.54.52h0a27.54,27.54,0,0,1-3.86-2.57A9.92,9.92,0,0,1,60.7,55a13.27,13.27,0,0,1-.29-9.09h0l0,.74c0,.48,0,1.16,0,2a16.72,16.72,0,0,0,1.31,5.92,11.63,11.63,0,0,0,1.69,2.74C63.61,57.5,63.83,57.73,64,58ZM60.71,40.34l-.49.55A13.24,13.24,0,0,0,58.72,43a12.94,12.94,0,0,0-1.34,3.46,12.56,12.56,0,0,0-.2,4.36,13,13,0,0,0,1.26,4.19,15.84,15.84,0,0,0,2.12,3.1c.72.84,1.38,1.48,1.83,1.93l.72.69h0a18.09,18.09,0,0,1-4.75-4.05A11.48,11.48,0,0,1,56,51a11.21,11.21,0,0,1,.93-6.12,11.62,11.62,0,0,1,4-4.74h0Zm-6.5,26.41h0a26.14,26.14,0,0,1-8.08-2.81,11.77,11.77,0,0,1-5.43-6.41h0l.38.57a13.3,13.3,0,0,0,1.14,1.41A19.45,19.45,0,0,0,46.69,63c1.9,1.12,3.79,2,5.21,2.66S54.21,66.75,54.21,66.75Zm31-58.92h0ZM49.56,61A12.42,12.42,0,0,1,46.2,53.3h0l.24.65c.15.41.39,1,.71,1.66a18.79,18.79,0,0,0,3.21,4.58A18,18,0,0,0,54.8,63.6a14.31,14.31,0,0,0,1.63.79l.63.27h0A12.38,12.38,0,0,1,49.56,61Zm-4.89-28.1c-2.08,2.49-4.79,6.2-5.54,10.86a14,14,0,0,0,.35,6.47A15.83,15.83,0,0,0,42.18,55c2,2.63,3.22,4.34,3.22,4.34h0L42.26,56a21.85,21.85,0,0,1-2.86-3.57,13,13,0,0,1-1.47-8.86,18.31,18.31,0,0,1,3.78-8.26,35.4,35.4,0,0,1,6.62-6.32h0l-1,1C46.67,30.65,45.73,31.61,44.67,32.86ZM88.28,6.54a9.59,9.59,0,0,0-.42.91c-.33.8-.64,2-1.09,3.51A15.63,15.63,0,0,1,84.16,16a18.42,18.42,0,0,1-5.31,4.58A20.92,20.92,0,0,1,72.29,23a25.32,25.32,0,0,1-5.6.38A27.91,27.91,0,0,1,63,23c-.87-.14-1.35-.25-1.35-.25h0a35.74,35.74,0,0,0,8.58-.29,23.78,23.78,0,0,0,8.09-2.78,19,19,0,0,0,6.31-5.74,18.38,18.38,0,0,0,1.92-3.84,15.08,15.08,0,0,1,1.91-3.83h0Zm-3.67.7s-.16-.18,0,0ZM38.35,26.18l-.35.21.63-.44Zm63.71-10.9,0,.23c0,.16,0,.39.06.7a8.45,8.45,0,0,1-.37,2.69,11,11,0,0,1-2.1,3.8,13.7,13.7,0,0,1-4.59,3.53,23.9,23.9,0,0,1-6.72,2c-2.47.39-5.1.56-7.84.8l-8.62.69a70.94,70.94,0,0,0-9,1,17.36,17.36,0,0,0-7.81,3.6,17.78,17.78,0,0,0-4.88,6.41A15.87,15.87,0,0,0,49,44.29a16.37,16.37,0,0,0-.28,1.8,17.64,17.64,0,0,0-.06,1.77A17,17,0,0,0,50,54.2a18.2,18.2,0,0,0,5.89,7.52,13.25,13.25,0,0,0,1.27.87c.38.23.7.43,1,.56l.83.43h0a18.1,18.1,0,0,1-8.58-7.38,17.36,17.36,0,0,1-2.51-11,18.23,18.23,0,0,1,4.78-10.26,17.92,17.92,0,0,1,4.51-3.53,19.39,19.39,0,0,1,5.41-1.91,87.88,87.88,0,0,1,11.45-1.11l11.49-.74a38.89,38.89,0,0,0,5.7-.79,17.93,17.93,0,0,0,5.34-2.08,12.54,12.54,0,0,0,4.07-4,8.79,8.79,0,0,0,1.4-5.48ZM84.35,7.68h0S84.4,7.68,84.35,7.68ZM28.14,90.37c1.71-3.74,5.25-6.33,8.93-8.17a8.19,8.19,0,0,0,2.48-1.6,5.32,5.32,0,0,0,1-4.46,31.8,31.8,0,0,0-1.44-4.5c-.79-2.33-.42-4.61-.4-6.89a11.74,11.74,0,0,0,1.6,1.13,14.8,14.8,0,0,0,6,1.91,15.17,15.17,0,0,0,6.82.46,15.74,15.74,0,0,0,4.71-1.63c1.43-.73,2.74-1.52,4.08-2.06a16.87,16.87,0,0,1,8.51-1,36.78,36.78,0,0,1,8.42,2.26c2.72,1,5.35,2.28,8.05,3.38a47.92,47.92,0,0,0,8.28,2.69,24,24,0,0,0,4.3.53,18.23,18.23,0,0,0,4.3-.33,12.43,12.43,0,0,0,1.34-.32,27.82,27.82,0,0,0-1.38,4.32,5.32,5.32,0,0,0,1,4.46,8.19,8.19,0,0,0,2.48,1.6c3.68,1.84,7.22,4.43,8.92,8.17a22.94,22.94,0,0,1,1.54,6.19q2.39,16,3.76,32.19c0,.28,0,.57,0,.89,0,.83,0,1.78,0,2.81-.6,3.19-1.17,6.38-1.74,9.57a30.3,30.3,0,0,1-1,3,22.45,22.45,0,0,1-1.77,3.44,19,19,0,0,1-2.63,3.17,24.56,24.56,0,0,0-3.07,3.05,9.1,9.1,0,0,0-1.63,3.81l-.09.53a26.93,26.93,0,0,0-3.73-3.15,19.75,19.75,0,0,0-3.75-2,20,20,0,0,0-4.43-1.24,34.37,34.37,0,0,0-8.73-.17,22.09,22.09,0,0,0-6.92,1.85,4.58,4.58,0,0,0,.8-.61,5.54,5.54,0,0,0,1.68-4.56A6.32,6.32,0,0,0,82,144.9c-1.2-.92-2.38-1.41-3.23-2A6,6,0,0,1,77,141.31c-.32-.47-.43-.79-.5-.77s-.09.37.15,1a5.31,5.31,0,0,0,1.69,2c.87.69,2,1.26,3,2.11a5.58,5.58,0,0,1,1.94,3.61A4.73,4.73,0,0,1,82.05,153a4.37,4.37,0,0,1-1.9,1.11,2.24,2.24,0,0,0,.36-.21,2.09,2.09,0,0,0,.78-1,1.24,1.24,0,0,0,0-.85,1.41,1.41,0,0,0-.59-.68,2.06,2.06,0,0,0-1.66-.17,3.52,3.52,0,0,0-1.4.85c-.77.76-1.22,1.53-1.81,2a6.66,6.66,0,0,1-1.75,1.12,10,10,0,0,1-1.26.43,10,10,0,0,1-1.26-.43,6.66,6.66,0,0,1-1.75-1.12c-.59-.5-1-1.27-1.81-2a3.52,3.52,0,0,0-1.4-.85,2.06,2.06,0,0,0-1.66.17,1.41,1.41,0,0,0-.59.68,1.24,1.24,0,0,0,0,.85,2.09,2.09,0,0,0,.78,1,3.28,3.28,0,0,0,1,.46H66A5,5,0,0,1,62.9,153a4.74,4.74,0,0,1-1.32-3.79,5.64,5.64,0,0,1,2-3.61c1-.85,2.17-1.42,3-2.11a5.35,5.35,0,0,0,1.7-2c.24-.59.21-.95.15-1s-.18.3-.5.77a6.14,6.14,0,0,1-1.76,1.61,37.7,37.7,0,0,0-3.23,2,6.32,6.32,0,0,0-2.36,4.23,5.54,5.54,0,0,0,1.68,4.56l.16.13a21.55,21.55,0,0,0-5.76-1.37,34.45,34.45,0,0,0-8.74.17,20.14,20.14,0,0,0-4.43,1.24,19.75,19.75,0,0,0-3.75,2,27.21,27.21,0,0,0-4,3.4c0-.26-.08-.52-.14-.78A9,9,0,0,0,34,154.72a25.26,25.26,0,0,0-3.07-3.05,19,19,0,0,1-2.63-3.17,22.45,22.45,0,0,1-1.77-3.44c-.22-.53-.41-1.06-.58-1.58q-.92-5.1-1.85-10.21c0-1.36,0-2.58-.05-3.63,0-1.52-.07-2.69-.12-3.47.64-9.94,1.32-20.42,2.69-29.61A22.92,22.92,0,0,1,28.14,90.37ZM11.41,110a3.63,3.63,0,0,1,1.23-.71A4.25,4.25,0,0,1,15,109.2a4.49,4.49,0,0,1,.48.16,8.72,8.72,0,0,1,1.32,4.14,5.91,5.91,0,0,0-.68-.9,5.43,5.43,0,0,0-2.76-1.66,4.71,4.71,0,0,0-1.63-.06,3,3,0,0,0-1.38.6,1.11,1.11,0,0,1,.07-.16A4.66,4.66,0,0,1,11.41,110ZM20,151.74a12.1,12.1,0,0,1-2.46-2.28A25.32,25.32,0,0,1,13,141.88a24.78,24.78,0,0,1-1.36-5,36.82,36.82,0,0,1-.35-5.67c0-2,0-4-.08-5.89a29.37,29.37,0,0,0-.85-5.53q-.21-.92-.39-1.77c.07-.5.14-1.06.2-1.69a10.43,10.43,0,0,1,.37-1.76,4.77,4.77,0,0,1,.37-.83,2.4,2.4,0,0,1,.51-.66,1,1,0,0,1,.59-.22,2.51,2.51,0,0,1,.9.07,3.65,3.65,0,0,1,1.73,1.1,6.73,6.73,0,0,1,1.5,4.12c.12,1.49.06,2.92.14,4.16a10.31,10.31,0,0,0,.53,2.91c.26.67.52,1,.65.94s0-1.45.25-3.68a49.78,49.78,0,0,0,5.21,14.2c-.08,1.7-.16,3.56-.24,5.56s-.16,4.4-.25,6.81a47.15,47.15,0,0,0-3.33-3.6,12.54,12.54,0,0,1-1.54-2,12.83,12.83,0,0,1-1.05-2.14,22.92,22.92,0,0,1-1.18-4c-.48-2.33-.53-3.87-.83-3.89s-.73,1.51-.6,4.08a17.14,17.14,0,0,0,.85,4.42,12.57,12.57,0,0,0,1.09,2.5,12,12,0,0,0,1.77,2.37c1.35,1.44,2.71,2.55,3.62,3.72a7.5,7.5,0,0,1,1.07,1.79c0,.09,0,.18-.05.28A4.9,4.9,0,0,1,20,151.74Zm6.1,25.71a31,31,0,0,1-3.88-.8c-.9-.24-1.39-.39-1.39-.39h0a30.06,30.06,0,0,0,9.07.49,17.05,17.05,0,0,0,8.16-3.82,76.82,76.82,0,0,0,6.86-6c1.1-1,2.11-2.2,3.22-3.23a7.41,7.41,0,0,1,4-2.12h0l-.36.11a5.57,5.57,0,0,0-.95.42A10.77,10.77,0,0,0,48,164.62a56.1,56.1,0,0,1-9.23,9.18,18,18,0,0,1-6.59,3.42A16.58,16.58,0,0,1,26.12,177.45Zm38.39-21c-1.16-.07-2.84-.13-4.89-.09a50.28,50.28,0,0,0-7,.62,20.77,20.77,0,0,0-7.64,2.69,42.2,42.2,0,0,0-3.55,2.55c-1.15.91-2.34,1.82-3.48,2.61a57.08,57.08,0,0,1-6.35,3.88,10.67,10.67,0,0,1-5,1.36,6.21,6.21,0,0,1-1.38-.19l-.45-.15h0a8,8,0,0,0,5.46-1.28,50.71,50.71,0,0,0,4.71-3.27q2.3-1.72,4.48-3.58A39.24,39.24,0,0,1,44,158.08a21.59,21.59,0,0,1,11-2.83A42.61,42.61,0,0,1,66,156.47l.13.05Zm-14,14.36a14.22,14.22,0,0,1,1-2.27,17.12,17.12,0,0,1,5.33-6.2,10.25,10.25,0,0,1,2.14-1.21,6.87,6.87,0,0,1,2.35-.52,10.67,10.67,0,0,1,2,.14c.61.09,1.17.21,1.68.33a18.75,18.75,0,0,1,2.34.75c.54.22.82.36.82.36h0a25.18,25.18,0,0,0-5.54-.71,7.11,7.11,0,0,0-2.74.41,10.52,10.52,0,0,0-2.44,1.34,22.67,22.67,0,0,0-7.17,8.44h0S50.3,171.32,50.48,170.77ZM22.8,183.91a8.69,8.69,0,0,1,1.05-.16c.67-.08,1.67-.1,2.84-.14,2.36-.08,5.57-.3,9.06-.75s6.65-1,9-1.52c1.15-.25,2.09-.48,2.74-.64l1-.24h0a42.38,42.38,0,0,1-19.12,3.92c-1.09,0-2.19-.11-3.27-.22a27.69,27.69,0,0,0-3.28-.25Zm9.94,5.59A26.11,26.11,0,0,0,31,196a8.89,8.89,0,0,0,1.65,6.44h0a4,4,0,0,1-.46-.34A5.44,5.44,0,0,1,31.08,201a7.74,7.74,0,0,1-1.23-5,11.5,11.5,0,0,1,1.69-4.75,15.15,15.15,0,0,1,1.2-1.7Zm25.31,26.22a12,12,0,0,1-2.8-6.33,12.21,12.21,0,0,1,.52-5.33,10.59,10.59,0,0,1,.62-1.5c.17-.34.28-.53.28-.53h0a21.13,21.13,0,0,0,1.79,14.13h0S58.31,216,58.05,215.72Zm3.5-4.69a22.94,22.94,0,0,1-.88-3.38,15.24,15.24,0,0,1-.05-5.3,11.8,11.8,0,0,1,1-3.09,10.07,10.07,0,0,1,2.08-2.87c1.73-1.65,3.47-2.67,4.4-4A8.26,8.26,0,0,0,69.5,188a14.65,14.65,0,0,0-.23-3.33c-.15-.79-.27-1.23-.27-1.23h0a11.54,11.54,0,0,1,.63,7.8,7.48,7.48,0,0,1-.87,1.8,9.79,9.79,0,0,1-1.3,1.51c-1,.92-2,1.7-3,2.63a11.37,11.37,0,0,0-3.23,7.13,24.9,24.9,0,0,0,.75,7.92h0S61.81,211.8,61.55,211Zm.7-2.83a9.49,9.49,0,0,1,0-1.28,10.24,10.24,0,0,1,2.25-5.62,8.51,8.51,0,0,1,.86-.94h0a25.91,25.91,0,0,0-3.15,7.84Zm4.44,9.3A8.85,8.85,0,0,1,65.52,216,10.92,10.92,0,0,1,64,209.78a13.73,13.73,0,0,1,1.83-6,16.08,16.08,0,0,1,1-1.58c.27-.36.43-.55.43-.55h0a22.47,22.47,0,0,0-2.2,8.21A13.44,13.44,0,0,0,67.19,218h0S67,217.82,66.69,217.5Zm11.45.48.21-.66c.13-.42.29-1,.44-1.76a23.24,23.24,0,0,0,.33-5.67,48.94,48.94,0,0,0-.67-5.76L78,201.62h0a22.47,22.47,0,0,1,2.2,8.21A13.44,13.44,0,0,1,78.14,218Zm3.52-10.13,0-.37c0-.23-.07-.56-.14-1a20.82,20.82,0,0,0-.76-3,20,20,0,0,0-1.19-2.85c-.18-.36-.34-.66-.46-.86l-.19-.32h0a10.06,10.06,0,0,1,2.79,8.36Zm1.69,4.37s0-.45.09-1.26.14-2,.12-3.4a17.56,17.56,0,0,0-.66-4.79A10.66,10.66,0,0,0,80.1,198c-1.44-1.4-3.37-2.69-4.44-4.64a8.56,8.56,0,0,1-.93-5.37,12,12,0,0,1,1-3.39c.18-.37.32-.66.43-.84l.17-.29h0a11.54,11.54,0,0,0-.63,7.8,7.48,7.48,0,0,0,.87,1.8,9.79,9.79,0,0,0,1.3,1.51c1,.92,2,1.7,3,2.63a11.37,11.37,0,0,1,3.23,7.13,24.9,24.9,0,0,1-.75,7.92Zm3.52,3.94s.14-.87.35-2.14.44-3,.68-4.91.45-3.61.56-4.92.2-2.16.2-2.16h0a21.13,21.13,0,0,1-1.79,14.13Zm25.86-13.68s.06-.2.18-.53a11.84,11.84,0,0,0,.33-1.4,17.15,17.15,0,0,0,0-4.4c-.16-1.71-.4-3.35-.53-4.6s-.16-2.06-.16-2.06h0a26.11,26.11,0,0,1,1.79,6.54,8.89,8.89,0,0,1-1.65,6.44Zm-20-46.54a28.46,28.46,0,0,0-6.92-.39c-2,.12-3.69.36-4.84.54l-1,.16,1.28-.54a31,31,0,0,1,9.15-1.46,18.27,18.27,0,0,1,10.78,3.36c3.15,2.27,4.68,6,7.55,8.59a11.55,11.55,0,0,0,5.06,2.57,27.91,27.91,0,0,0,5.69.68h0s-.64.1-1.82.18a18.64,18.64,0,0,1-5.09-.27,12.16,12.16,0,0,1-3.48-1.3,14,14,0,0,1-3.29-2.74c-1-1.08-1.88-2.26-2.78-3.36a16.79,16.79,0,0,0-2.94-2.9A18.31,18.31,0,0,0,92.69,155.94Z"/><path class="cls-2" d="M41.42,98c1.72-.35,4.2-.92,7.3-1.38a37.73,37.73,0,0,1,10.88-.19c2,.29,4.13.83,6.34,1.35a33.81,33.81,0,0,0,7,1.1,16.19,16.19,0,0,0,3.63-.3,28.14,28.14,0,0,0,3.37-1,44,44,0,0,1,6.19-1.86A34.1,34.1,0,0,1,97,95.29a35.47,35.47,0,0,1,7.21,1.58l1.1.37.8.3a2.2,2.2,0,0,0,.68.19s-.19-.15-.61-.36l-.77-.38-1.08-.46a31.59,31.59,0,0,0-7.25-1.88A33.45,33.45,0,0,0,86,94.94a44.58,44.58,0,0,0-6.3,1.83,26.3,26.3,0,0,1-3.26.92A15.13,15.13,0,0,1,73,98a33.93,33.93,0,0,1-6.81-1c-2.19-.51-4.33-1-6.42-1.32A36.89,36.89,0,0,0,48.61,96c-3.11.54-5.57,1.21-7.27,1.67a15.57,15.57,0,0,0-2.61.84A16.24,16.24,0,0,0,41.42,98Z"/><path class="cls-2" d="M46,90.84c1.47-.29,3.59-.77,6.22-1.15a32.44,32.44,0,0,1,9.27-.16c1.73.26,3.52.72,5.4,1.16a29.19,29.19,0,0,0,6,.94A13.52,13.52,0,0,0,76,91.37a22.93,22.93,0,0,0,2.88-.82A36.72,36.72,0,0,1,84.17,89a29.15,29.15,0,0,1,9.25-.43,30.49,30.49,0,0,1,6.14,1.33,15.48,15.48,0,0,0,2.22.7,2.18,2.18,0,0,0-.52-.32,15.53,15.53,0,0,0-1.58-.72A26.13,26.13,0,0,0,93.5,87.9a28.25,28.25,0,0,0-9.5.24,35.47,35.47,0,0,0-5.39,1.56,15.12,15.12,0,0,1-5.68,1,29.22,29.22,0,0,1-5.8-.89c-1.87-.43-3.7-.88-5.49-1.12a31.23,31.23,0,0,0-9.49.34A63.2,63.2,0,0,0,46,90.49a10.88,10.88,0,0,0-2.22.74A12.46,12.46,0,0,0,46,90.84Z"/><path class="cls-2" d="M55.45,83.19c.95-.17,2.33-.47,4-.7a21,21,0,0,1,6-.06c1.11.16,2.27.46,3.49.76a19.15,19.15,0,0,0,3.91.61,10.38,10.38,0,0,0,3.94-.71,24,24,0,0,1,3.39-1,19,19,0,0,1,5.95-.31A40.22,40.22,0,0,1,91.57,83a4.28,4.28,0,0,0-1.34-.73,16.1,16.1,0,0,0-4-1.11,18.07,18.07,0,0,0-6.19.12,23.29,23.29,0,0,0-3.52,1,9.72,9.72,0,0,1-3.63.64c-2.55-.08-5-1-7.3-1.29a20.13,20.13,0,0,0-6.19.26,37.35,37.35,0,0,0-4,1,4.87,4.87,0,0,0-1.42.54A5.46,5.46,0,0,0,55.45,83.19Z"/><path class="cls-2" d="M50.77,131.54c.34.43,5-.25,6.89-1.51.74-.51,3.55-3.81,3.65-4.62a24.91,24.91,0,0,1-4.47,4C55.56,130.23,52.34,131.83,50.77,131.54Z"/><path class="cls-2" d="M45.27,121a4,4,0,1,0,3.53-4.34A3.94,3.94,0,0,0,45.27,121Z"/><path class="cls-2" d="M63.12,120.3c.06-.57-1.3-1.11-1.7-1.33A21.72,21.72,0,0,0,59,117.89a40.7,40.7,0,0,0-15.06-2.52c-2.6.07-5.31.42-7.44,1.91a1.73,1.73,0,0,0-.91,1.32,1.31,1.31,0,0,0,1,1.14,4.12,4.12,0,0,0,.79.18,6.4,6.4,0,0,0,1.15,1.75,7,7,0,0,0,1.23,1.08,11.4,11.4,0,0,0,4.63,1.76c-.34-.14-2.08-1.21-2.5-1.49A7.55,7.55,0,0,1,39,119.37a21.82,21.82,0,0,1,8.68-1.45,58.1,58.1,0,0,1,10,1.19c.42.08.85.18,1.27.29l-.08.06a1.59,1.59,0,0,0-.12.27,7.79,7.79,0,0,1-3.09,4c-.44.26-2.22,1.29-2.56,1.43a11.6,11.6,0,0,0,4.72-1.66,7.09,7.09,0,0,0,1.27-1,5.6,5.6,0,0,0,1.47-2.49.31.31,0,0,0,0-.09A13.64,13.64,0,0,0,63.12,120.3Z"/><path class="cls-1" d="M54.12,120.93a1.06,1.06,0,1,1-.94-1.16A1.06,1.06,0,0,1,54.12,120.93Z"/><path class="cls-1" d="M52.15,122.39a.48.48,0,1,1-.43-.53A.47.47,0,0,1,52.15,122.39Z"/><path class="cls-2" d="M67.43,106.63c-.2-1.13-.43-1.67-.58-1.65-.36,0-.2,2.27-.5,6.66-.08,1.09-.19,2.07-.29,2.85a.9.9,0,0,1-.29.65,1.45,1.45,0,0,1-.65.25l-.36,0h-.17a9.4,9.4,0,0,1-1.55-.27c-.36-.12-.83-.26-1.39-.41-1.37-.38-3.28-.8-5.35-1.33A27.79,27.79,0,0,1,52,112c-.16-.1-.33-.2-.47-.3a17.63,17.63,0,0,0-1.67-1,15.14,15.14,0,0,0-1.88-1.17,11.29,11.29,0,0,0-1.19-.52,14.85,14.85,0,0,0-3-1.18,6.19,6.19,0,0,0-3-.34c0,.09.45.2,1.23.44a14.38,14.38,0,0,0-4.54,0A7.08,7.08,0,0,0,34.21,109c0,.14,1.28-.26,3.32-.44.5,0,1-.06,1.63-.05a18.55,18.55,0,0,0-2.56.68,30.13,30.13,0,0,0-9.5,5.77A48.2,48.2,0,0,1,38.84,112c3.55-.31,5.77,1,8.5,2.77a22.43,22.43,0,0,0-2-1c-1.29-.54-2.21-.41-2.19-.29s.8.24,1.91.88c.56.31,1.19.75,1.95,1.21a23.58,23.58,0,0,0,2.57,1.34,16.65,16.65,0,0,0,7.09,1.72c2.66.21,7.73-2.25,7.89-2.25a5.12,5.12,0,0,0,1-.12,1.92,1.92,0,0,0,.8-.23,1.87,1.87,0,0,0,.86-1.28,22.26,22.26,0,0,0,.42-3A20.93,20.93,0,0,0,67.43,106.63Z"/><path class="cls-2" d="M100,121a4,4,0,1,1-3.53-4.34A3.95,3.95,0,0,1,100,121Z"/><path class="cls-2" d="M108.84,117.28c-2.13-1.49-4.84-1.84-7.44-1.91a40.7,40.7,0,0,0-15.06,2.52A21.72,21.72,0,0,0,83.87,119c-.41.22-1.76.76-1.7,1.33a13.64,13.64,0,0,0,2.57-.47.31.31,0,0,0,0,.09,5.6,5.6,0,0,0,1.47,2.49,7.09,7.09,0,0,0,1.27,1,11.6,11.6,0,0,0,4.72,1.66c-.35-.14-2.13-1.17-2.56-1.43a7.79,7.79,0,0,1-3.09-4,1.59,1.59,0,0,0-.12-.27l-.08-.06c.42-.11.85-.21,1.27-.29a58.1,58.1,0,0,1,10-1.19,21.84,21.84,0,0,1,8.69,1.45,7.55,7.55,0,0,1-2.82,3.65c-.43.28-2.16,1.35-2.5,1.49a11.4,11.4,0,0,0,4.63-1.76,7,7,0,0,0,1.23-1.08,6.64,6.64,0,0,0,1.15-1.75,4.12,4.12,0,0,0,.79-.18,1.31,1.31,0,0,0,1-1.14A1.73,1.73,0,0,0,108.84,117.28Z"/><path class="cls-1" d="M100.94,120.93a1.06,1.06,0,1,1-1-1.16A1.06,1.06,0,0,1,100.94,120.93Z"/><path class="cls-1" d="M99,122.39a.48.48,0,0,1-.53.43.48.48,0,0,1-.43-.53.48.48,0,1,1,1,.1Z"/><path class="cls-2" d="M94.58,131.54c-.34.43-5-.25-6.88-1.51-.75-.51-3.56-3.81-3.66-4.62a25,25,0,0,0,4.48,4C89.79,130.23,93,131.83,94.58,131.54Z"/><path class="cls-2" d="M75.89,131c0,7.91.73,7.92.73,0S75.89,123,75.89,131Z"/><path class="cls-2" d="M107.79,109.14a18.41,18.41,0,0,0-2.55-.68c.58,0,1.13,0,1.62.05,2,.18,3.28.58,3.33.44a7.23,7.23,0,0,0-3.25-1.08,14.38,14.38,0,0,0-4.54,0c.78-.24,1.25-.35,1.23-.44a6.19,6.19,0,0,0-3,.34,15,15,0,0,0-3,1.18,10.6,10.6,0,0,0-1.2.52,15.91,15.91,0,0,0-1.88,1.17,19,19,0,0,0-1.67,1l-.46.3a28.3,28.3,0,0,1-4.35,1.45c-2.06.53-4,1-5.34,1.33-.57.15-1,.29-1.4.41a11.43,11.43,0,0,1-1.55.27h-.12l-.36,0a1.55,1.55,0,0,1-.65-.25.9.9,0,0,1-.29-.65c-.1-.78-.21-1.76-.29-2.85-.3-4.38-.15-6.62-.5-6.66-.15,0-.38.52-.58,1.64a21,21,0,0,0-.16,5.12,22.26,22.26,0,0,0,.42,3,1.88,1.88,0,0,0,.85,1.28,1.84,1.84,0,0,0,.73.22,4.49,4.49,0,0,0,1,.13c.15,0,5.22,2.46,7.88,2.25a16.71,16.71,0,0,0,7.1-1.72,24.35,24.35,0,0,0,2.56-1.34c.76-.46,1.4-.9,2-1.21,1.11-.64,1.91-.74,1.91-.88s-.91-.25-2.19.29a22.51,22.51,0,0,0-2,1c2.73-1.78,5-3.08,8.5-2.77a48.2,48.2,0,0,1,11.74,2.92A30.13,30.13,0,0,0,107.79,109.14Z"/></g></g></svg>